<svg xmlns="http://www.w3.org/2000/svg" viewBox="0 0 211.07 51.78"><defs><style>.cls-1,.cls-2{fill:#500050;}.cls-2{font-size:18px;font-family:TTNorms-ExtraBold, TTNorms ExtraBold;font-weight:700;}.cls-3{fill:#e75166;}</style></defs><title>05</title><g id="Layer_2" data-name="Layer 2"><g id="web"><path class="cls-1" d="M0,49.78V1.38H21.77q7.46,0,12,3.81t4.56,9A11.23,11.23,0,0,1,37.7,18a9.22,9.22,0,0,1-1.55,2.89,18.12,18.12,0,0,1-1.81,1.88,7.7,7.7,0,0,1-1.57,1.13l-.64.34.93.39a18.75,18.75,0,0,1,2.07,1.18,13.82,13.82,0,0,1,2.63,2.11,11.26,11.26,0,0,1,2.08,3.24,10.85,10.85,0,0,1,.93,4.49q0,5.67-4.94,9.92T23.15,49.78Zm13.13-38V20h7.26a4.6,4.6,0,0,0,3.27-1.13,3.9,3.9,0,0,0,1.22-3,3.92,3.92,0,0,0-1.22-3,4.63,4.63,0,0,0-3.27-1.13Zm9,27.64A5.21,5.21,0,0,0,25.85,38a4.85,4.85,0,0,0,0-6.92,5.21,5.21,0,0,0-3.75-1.38h-9v9.69Z"/><path class="cls-1" d="M46.07,1.38H68.89A17.53,17.53,0,0,1,81.53,6.16a15.74,15.74,0,0,1,5,11.83,16.75,16.75,0,0,1-.86,5.42,14.19,14.19,0,0,1-2.08,4.08,20.48,20.48,0,0,1-2.43,2.67,10.05,10.05,0,0,1-2,1.5l-.91.51,10,17.62H74.43l-8.3-15.22H59.2V49.78H46.07ZM71.93,14.53a5.24,5.24,0,0,0-3.75-1.37h-9v9.65h9a5.21,5.21,0,0,0,3.75-1.38A4.58,4.58,0,0,0,73.38,18,4.53,4.53,0,0,0,71.93,14.53Z"/><path class="cls-1" d="M98.9,43.62a24.14,24.14,0,0,1-7.85-18,24.14,24.14,0,0,1,7.85-18A27.87,27.87,0,0,1,125.42,1a23.13,23.13,0,0,1,5.79,2.43,35.87,35.87,0,0,1,4,2.84,15,15,0,0,1,2.45,2.43l.78,1-8,8.3-.54-.69a15.13,15.13,0,0,0-1.55-1.49,20,20,0,0,0-2.53-1.89,16.08,16.08,0,0,0-7.8-2.15,13.47,13.47,0,0,0-13.84,13.8A13.5,13.5,0,0,0,118,39.42a13.08,13.08,0,0,0,4.56-.76,8.2,8.2,0,0,0,2.9-1.61L127,35.5V31.12H118.7v-8.3h20.76V40.47a9.23,9.23,0,0,1-1,1.19,29.16,29.16,0,0,1-2.72,2.63,40.15,40.15,0,0,1-5.25,3.44,19,19,0,0,1-5,2.42,27.7,27.7,0,0,1-7.53,1A26.55,26.55,0,0,1,98.9,43.62Z"/><text class="cls-2" transform="translate(154.86 23.58)">BRIDGE<tspan x="0" y="17.94">2.0</tspan></text><path class="cls-3" d="M117.6,51.78a25.57,25.57,0,0,1-18.14-7.5l8.77-8.77a13.26,13.26,0,0,0,18.74,0l8.77,8.77A25.58,25.58,0,0,1,117.6,51.78Z"/></g></g></svg>