<svg xmlns="http://www.w3.org/2000/svg" viewBox="0 0 273.38 51.86"><defs><style>.cls-1{font-size:18px;font-family:TTNorms-ExtraBold, TTNorms ExtraBold;font-weight:700;}.cls-1,.cls-3{fill:#500050;}.cls-2{letter-spacing:-0.02em;}.cls-4{fill:#e75166;}</style></defs><title>10</title><g id="Layer_2" data-name="Layer 2"><g id="web"><text class="cls-1" transform="translate(172.09 34.58)"><tspan class="cls-2">C</tspan><tspan x="10.06" y="0">OMUNICUM</tspan></text><path class="cls-3" d="M62.71,21.67V50.15h-13V2.1H61.33L76.07,21,90.85,2.1h11.66v48h-13V21.67L76.07,38.49Z"/><path class="cls-3" d="M156.4,2.1v48H145.14L124.5,23.38V50.15h-13V2.1h11.33l20.57,26.77V2.1Z"/><path class="cls-3" d="M16.4,35.32a13.36,13.36,0,0,1,0-18.78,13.09,13.09,0,0,1,18.63,0L43.9,7.6a25.56,25.56,0,0,0-36.37,0,26.09,26.09,0,0,0,0,36.67,25.56,25.56,0,0,0,36.37,0L35,35.32A13.09,13.09,0,0,1,16.4,35.32Z"/><path class="cls-4" d="M25.8,51.86a25.51,25.51,0,0,1-18.1-7.48l8.75-8.75a13.22,13.22,0,0,0,18.69,0l8.75,8.75A25.51,25.51,0,0,1,25.8,51.86Z"/></g></g></svg>