<svg xmlns="http://www.w3.org/2000/svg" viewBox="0 0 265.15 58.69"><defs><style>.cls-1{fill:#500050;}.cls-2{fill:#e75166;}</style></defs><title>dek</title><g id="Layer_2" data-name="Layer 2"><g id="web"><path class="cls-1" d="M183.47.66a7.89,7.89,0,0,1,5.7,2.17,7.14,7.14,0,0,1,2.26,5.35,7.13,7.13,0,0,1-2.26,5.35,7.89,7.89,0,0,1-5.69,2.17h-5.81V.66Zm-1.72,3.66v7.74h1.72A3.78,3.78,0,0,0,186.18,11a3.69,3.69,0,0,0,1.14-2.77,3.7,3.7,0,0,0-3.86-3.86Z"/><path class="cls-1" d="M194,.66h4.08V15.71H194Z"/><path class="cls-1" d="M203.1,13.8a7.51,7.51,0,0,1-2.44-5.61,7.51,7.51,0,0,1,2.44-5.61,8.67,8.67,0,0,1,8.25-2,7.19,7.19,0,0,1,1.8.76,11.14,11.14,0,0,1,1.24.88,4.65,4.65,0,0,1,.76.76l.24.3-2.48,2.58-.17-.22a4.72,4.72,0,0,0-.48-.46,6.23,6.23,0,0,0-.79-.59A5,5,0,0,0,209,3.89a4.19,4.19,0,0,0-4.3,4.29,4.2,4.2,0,0,0,4.3,4.3,4.07,4.07,0,0,0,1.42-.24,2.56,2.56,0,0,0,.9-.5l.25-.23V9.91h-2.36V7.33h6.46v5.81a2.52,2.52,0,0,1-.28.33q-.2.21-.83.72a8.78,8.78,0,0,1-1.35.92,8.9,8.9,0,0,1-1.86.72,8.58,8.58,0,0,1-2.34.32A8.26,8.26,0,0,1,203.1,13.8Z"/><path class="cls-1" d="M218.94.66H223V15.71h-4.08Z"/><path class="cls-1" d="M237.63.66V4.32h-4.2V15.71h-4.08V4.32h-4.19V.66Z"/><path class="cls-1" d="M242.25,12.49l-1.07,3.22h-4.41L242.47.66H247l5.7,15.05h-4.41l-1.08-3.22Zm2.48-7.63-1.4,4.41h2.79Z"/><path class="cls-1" d="M254.4,15.71V.66h4.08v11.4h6.67v3.65Z"/><path class="cls-1" d="M189.48,33.71v3.44H177.66V22.1h11.61v3.44h-7.53v2.36h5.81v3.23h-5.81v2.57Z"/><path class="cls-1" d="M190.56,22.1H195l3.23,10.32,3.22-10.32h4.41l-5.37,15.05h-4.52Z"/><path class="cls-1" d="M219.59,33.71v3.44H207.77V22.1h11.61v3.44h-7.53v2.36h5.81v3.23h-5.81v2.57Z"/><path class="cls-1" d="M236.26,22.1V37.15h-3.53l-6.47-8.39v8.39h-4.08V22.1h3.55l6.45,8.39V22.1Z"/><path class="cls-1" d="M250.89,22.1v3.66h-4.2V37.15h-4.08V25.76h-4.19V22.1Z"/><path class="cls-1" d="M181.74,54.72v3.87h-4.08V43.54h4.08v5.81l4.94-5.81h4.73L186,49.78l5.81,8.82h-4.73l-3.76-5.7Z"/><path class="cls-1" d="M193.36,43.54h4.08V58.59h-4.08Z"/><path class="cls-1" d="M212.06,43.54V47.2h-4.2V58.59h-4.08V47.2h-4.19V43.54Z"/><path class="cls-1" d="M22.34,0C31.17,0,37.11,1.78,42.9,7.36S50.57,20.8,50.57,29s-1.82,16.09-7.72,21.56C38,55,31.15,57.93,22.34,57.93H0V0ZM15.71,14.1V43.87h6.63A14.53,14.53,0,0,0,32.8,39.61,14.2,14.2,0,0,0,37.21,29,14.25,14.25,0,0,0,22.34,14.1Z"/><path class="cls-2" d="M51.77,29a30.48,30.48,0,0,1-8.94,21.62L32.37,40.13a15.79,15.79,0,0,0,0-22.33L42.82,7.34A30.48,30.48,0,0,1,51.77,29Z"/><path class="cls-1" d="M126,43.82V58.69H110.33V.89H126V23.18L145,.89h18.18L142.53,24.83l22.29,33.86H146.65L132.22,36.8Z"/><path class="cls-1" d="M102.29,45.07V58.44H56.76V0h44.72V13.37h-29v9.17H94.85V35.09H72.49v10Z"/></g></g></svg>