<svg xmlns="http://www.w3.org/2000/svg" viewBox="0 0 219.3 55.5"><defs><style>.cls-1{font-size:18px;fill:#500050;font-family:TTNorms-ExtraBold, TTNorms ExtraBold;font-weight:700;}.cls-2{letter-spacing:-0.08em;}.cls-3{fill:#581751;}.cls-4{fill:#e75166;}</style></defs><title>01</title><g id="Layer_2" data-name="Layer 2"><g id="web"><text class="cls-1" transform="matrix(1, 0, 0, 1, 159.94, 15.12)">DIGI<tspan class="cls-2" x="32.22" y="0">T</tspan><tspan x="39.82" y="0">AL</tspan><tspan x="0" y="17.94">PRESS</tspan><tspan x="0" y="35.89">OFFICE</tspan></text><path class="cls-3" d="M0,51.32,0,2.83l20.36,0C35.62,2.8,46.61,12,46.62,27s-11,24.29-26.15,24.3ZM33.83,27c0-7.49-4.52-13.3-13.39-13.29H12.51l0,26.68h7.85C28.89,40.39,33.83,34.21,33.83,27Z"/><path class="cls-3" d="M52.17,51.28l0-48.49,24.28,0c10.9,0,16.87,7.33,16.88,16.13S87.34,35,76.44,35H64.66V51.27ZM80.57,18.9c0-3.35-2.48-5.23-5.82-5.23H64.64v10.4H74.76C78.1,24.07,80.57,22.17,80.57,18.9Z"/><path class="cls-3" d="M123.62,52.69A25.65,25.65,0,1,1,141.72,8.9h0a25.64,25.64,0,0,1-18.1,43.79Zm0-38.88A13.24,13.24,0,1,0,133,17.67,13.2,13.2,0,0,0,123.59,13.81Z"/><path class="cls-4" d="M123.62,52.69a25.57,25.57,0,0,1-18.14-7.49l8.76-8.78a13.26,13.26,0,0,0,18.74,0l8.78,8.76A25.58,25.58,0,0,1,123.62,52.69Z"/></g></g></svg>