<svg xmlns="http://www.w3.org/2000/svg" viewBox="0 0 203.12 52.53"><defs><style>.cls-1,.cls-2{fill:#500050;}.cls-2{font-size:18.23px;font-family:TTNorms-ExtraBold, TTNorms ExtraBold;font-weight:700;}.cls-3{fill:#e75166;}</style></defs><title>08</title><g id="Layer_2" data-name="Layer 2"><g id="web"><path class="cls-1" d="M58.6,35.77a13.61,13.61,0,0,1,0-19,13.09,13.09,0,0,1,18.72,0l8.91-9.06a25.55,25.55,0,0,0-36.55,0,26.57,26.57,0,0,0,0,37.14,25.55,25.55,0,0,0,36.55,0l-8.91-9.06A13.09,13.09,0,0,1,58.6,35.77Z"/><text class="cls-2" transform="translate(147.77 34.76) scale(0.99 1)">E-CUBE</text><path class="cls-1" d="M38.1,39.87V51.06H0V2.16H37.42V13.34H13.16V21H31.87v10.5H13.16v8.35Z"/><path class="cls-1" d="M93.37,51.06V2.16H115.2q7.48,0,12,3.85a11.56,11.56,0,0,1,4.57,9.07,11.43,11.43,0,0,1-.64,3.83,9.34,9.34,0,0,1-1.56,2.92,18.25,18.25,0,0,1-1.81,1.89,7.72,7.72,0,0,1-1.57,1.14l-.64.34.93.39a18.75,18.75,0,0,1,2.08,1.19,13.87,13.87,0,0,1,2.64,2.13,11.39,11.39,0,0,1,2.08,3.27,11,11,0,0,1,.93,4.54q0,5.73-5,10t-12.71,4.3Zm13.16-38.4V21h7.27a4.59,4.59,0,0,0,3.28-1.14,4,4,0,0,0,1.22-3,4,4,0,0,0-1.22-3,4.62,4.62,0,0,0-3.28-1.14Zm9,27.93a5.2,5.2,0,0,0,3.76-1.4,4.93,4.93,0,0,0,0-7,5.2,5.2,0,0,0-3.76-1.4h-9v9.79Z"/><path class="cls-3" d="M68.05,52.53a25.54,25.54,0,0,1-18.19-7.58l8.79-8.86a13.21,13.21,0,0,0,18.78,0l8.79,8.86A25.54,25.54,0,0,1,68.05,52.53Z"/></g></g></svg>