<svg xmlns="http://www.w3.org/2000/svg" viewBox="0 0 181.01 51.25"><defs><style>.cls-1{font-size:18px;fill:#500050;font-family:TTNorms-ExtraBold, TTNorms ExtraBold;font-weight:700;}.cls-2{fill:#581751;}.cls-3{fill:#e75166;}</style></defs><title>03</title><g id="Layer_2" data-name="Layer 2"><g id="web"><text class="cls-1" transform="translate(121.16 33)">INSIDER</text><path class="cls-2" d="M0,1.39H13.15V49.87H0Z"/><path class="cls-2" d="M42,32.69a10.39,10.39,0,0,0-3.23-1.62q-2-.64-4.39-1.37a35.66,35.66,0,0,1-4.8-1.84,22.33,22.33,0,0,1-4.36-2.67A11.43,11.43,0,0,1,22,21a14,14,0,0,1-1.25-6.09q0-6,5.16-10.43T39.13,0a26,26,0,0,1,6.25.72A20.68,20.68,0,0,1,50.2,2.47a33.29,33.29,0,0,1,3.29,2,8.06,8.06,0,0,1,2,1.78l.64.68-7.64,8a12.84,12.84,0,0,0-1-1,13.66,13.66,0,0,0-2.74-1.71,9,9,0,0,0-4.21-1.08,5.58,5.58,0,0,0-3.72,1.25,3.72,3.72,0,0,0-1.49,2.91,2.82,2.82,0,0,0,1.25,2.28,11,11,0,0,0,3.23,1.62q2,.66,4.36,1.39A37.73,37.73,0,0,1,49,22.38a22,22,0,0,1,4.39,2.67,11.46,11.46,0,0,1,3.23,4.19,14,14,0,0,1,1.25,6.09,14.41,14.41,0,0,1-5.31,11.33q-5.31,4.6-14.1,4.6a27.51,27.51,0,0,1-6.92-.86A22.89,22.89,0,0,1,26,48.31a38.94,38.94,0,0,1-3.8-2.43,16,16,0,0,1-2.43-2.1L19,42.94,26.65,35a3.44,3.44,0,0,0,.49.54c.23.23.7.64,1.38,1.25a15.07,15.07,0,0,0,2.18,1.6,13.31,13.31,0,0,0,2.87,1.24,11.46,11.46,0,0,0,3.45.54,6.62,6.62,0,0,0,4.52-1.52A4.7,4.7,0,0,0,43.29,35,2.87,2.87,0,0,0,42,32.69Z"/><path class="cls-2" d="M83.13,1.39c7.39,0,12.36,1.49,17.21,6.16s6.42,11.25,6.42,18.08-1.52,13.46-6.46,18c-4,3.75-9.8,6.2-17.17,6.2H64.43V1.39Zm-5.54,11.8V38.1h5.54a12.16,12.16,0,0,0,8.76-3.57,11.88,11.88,0,0,0,3.68-8.91A11.93,11.93,0,0,0,83.13,13.18Z"/><path class="cls-3" d="M107.75,25.63a25.51,25.51,0,0,1-7.48,18.1L91.52,35a13.22,13.22,0,0,0,0-18.69l8.75-8.75A25.51,25.51,0,0,1,107.75,25.63Z"/></g></g></svg>