<svg xmlns="http://www.w3.org/2000/svg" viewBox="0 0 223.14 55.45"><defs><style>.cls-1{font-size:18px;font-family:TTNorms-ExtraBold, TTNorms ExtraBold;font-weight:700;}.cls-1,.cls-6{fill:#500050;}.cls-2{letter-spacing:0em;}.cls-3{letter-spacing:-0.08em;}.cls-4{letter-spacing:0em;}.cls-5{letter-spacing:-0.01em;}.cls-7{fill:#e75166;}</style></defs><title>09</title><g id="Layer_2" data-name="Layer 2"><g id="web"><text class="cls-1" transform="translate(148.81 15.07)"><tspan class="cls-2">К</tspan><tspan x="9.85" y="0">АР</tspan><tspan class="cls-3" x="30.44" y="0">Т</tspan><tspan class="cls-4" x="37.93" y="0">А</tspan><tspan x="0" y="17.94">ЛИДЕ</tspan><tspan class="cls-5" x="42.73" y="17.94">Р</tspan><tspan x="52.16" y="17.94">ОВ</tspan><tspan x="0" y="35.89">МНЕНИЙ</tspan></text><path class="cls-6" d="M70.39,52.52A25.65,25.65,0,1,1,88.53,8.74h0A25.64,25.64,0,0,1,70.39,52.52Zm0-38.88a13.24,13.24,0,1,0,9.37,3.87A13.2,13.2,0,0,0,70.39,13.64Z"/><path class="cls-7" d="M70.39,52.52A25.57,25.57,0,0,1,52.26,45L61,36.25a13.26,13.26,0,0,0,18.74,0L88.53,45A25.58,25.58,0,0,1,70.39,52.52Z"/><path class="cls-6" d="M13.16,38.73V51.21H0V2.71H13.16v18.7L29.08,2.71H44.34L27,22.8l18.7,28.41H30.47L18.36,32.84Z"/><path class="cls-6" d="M103.34,51.21V2.71H116.5V39.44H138V51.21Z"/></g></g></svg>