<svg xmlns="http://www.w3.org/2000/svg" viewBox="0 0 283.18 55.45"><defs><style>.cls-1{font-size:18px;fill:#500050;font-family:TTNorms-ExtraBold, TTNorms ExtraBold;font-weight:700;}.cls-2{letter-spacing:-0.07em;}.cls-3{letter-spacing:-0.08em;}.cls-4{letter-spacing:0em;}.cls-5{letter-spacing:-0.01em;}.cls-6{letter-spacing:0em;}.cls-7{letter-spacing:-0.02em;}.cls-8{fill:#581751;}.cls-9{fill:#e75166;}</style></defs><title>07</title><g id="Layer_2" data-name="Layer 2"><g id="web"><text class="cls-1" transform="translate(170.67 15.07)">ONLINE<tspan x="0" y="17.94">REPU</tspan><tspan class="cls-2" x="39.76" y="17.94">T</tspan><tspan class="cls-3" x="47.36" y="17.94">A</tspan><tspan class="cls-4" x="56.99" y="17.94">TION</tspan><tspan class="cls-5" x="0" y="35.89">M</tspan><tspan class="cls-6" x="14.29" y="35.89">AN</tspan><tspan class="cls-7" x="37.15" y="35.89">A</tspan><tspan x="47.9" y="35.89">GEMENT</tspan></text><path class="cls-8" d="M82.74,50.91,74.62,34.66H68.23V50.91H55.76V2.53H80c10.73,0,16.83,7.11,16.83,16.1,0,8.41-5.15,12.91-9.65,14.5L97,50.91Zm1.38-32.35c0-3.26-2.76-5.15-6-5.15H68.23V23.78H78.1C81.36,23.78,84.12,22,84.12,18.56Z"/><path class="cls-8" d="M145.41,50.91V19.43L133.15,50.91h-5.51L115.45,19.43V50.91H103V2.53h17.34l10.08,26.26L140.55,2.53h17.34V50.91Z"/><path class="cls-8" d="M25.58,52.37a25.58,25.58,0,1,1,18.1-7.48A25.51,25.51,0,0,1,25.58,52.37Zm0-38.79a13.21,13.21,0,1,0,9.35,3.86A13.18,13.18,0,0,0,25.58,13.58Z"/><path class="cls-9" d="M25.58,52.37a25.51,25.51,0,0,1-18.1-7.48l8.75-8.75a13.22,13.22,0,0,0,18.69,0l8.75,8.75A25.51,25.51,0,0,1,25.58,52.37Z"/></g></g></svg>