<svg xmlns="http://www.w3.org/2000/svg" viewBox="0 0 275.16 52.31"><defs><style>.cls-1{fill:#581751;}.cls-2{fill:#e75166;}</style></defs><title>04</title><g id="Layer_2" data-name="Layer 2"><g id="web"><path class="cls-1" d="M177.09,24.36l-2-4h-1.59v4h-3.11V12.3h6a3.88,3.88,0,0,1,4.19,4,3.65,3.65,0,0,1-2.4,3.61l2.46,4.43Zm.34-8.06a1.35,1.35,0,0,0-1.5-1.28h-2.46V17.6h2.46A1.34,1.34,0,0,0,177.43,16.3Z"/><path class="cls-1" d="M182.68,24.36V12.3h8.84V15h-5.73v1.88h5.6V19.6h-5.6v2h5.73v2.71Z"/><path class="cls-1" d="M193.68,24.36V12.3h3.11v9.34h4.84v2.71Z"/><path class="cls-1" d="M203.6,24.36V12.3h8.84V15h-5.73v1.88h5.6V19.6h-5.6v2h5.73v2.71Z"/><path class="cls-1" d="M217.86,24.36,213.32,12.3h3.52l3,8.69,3-8.69h3.52l-4.55,12.05Z"/><path class="cls-1" d="M235,24.36l-.6-1.73H229.6l-.6,1.73h-3.52L230,12.3h3.9l4.55,12.05Zm-3-9-1.54,4.54h3.07Z"/><path class="cls-1" d="M247.93,24.36l-5.1-7v7h-3.11V12.3h3.2l4.88,6.63V12.3h3.13V24.36Z"/><path class="cls-1" d="M252.84,18.34c0-3.72,2.82-6.23,6.52-6.23a5.56,5.56,0,0,1,5.26,3.23l-2.67,1.26a2.89,2.89,0,0,0-2.58-1.75A3.33,3.33,0,0,0,256,18.34a3.33,3.33,0,0,0,3.36,3.49,2.89,2.89,0,0,0,2.58-1.75l2.67,1.27a5.6,5.6,0,0,1-5.26,3.23C255.66,24.57,252.84,22,252.84,18.34Z"/><path class="cls-1" d="M266.32,24.36V12.3h8.84V15h-5.73v1.88H275V19.6h-5.6v2h5.73v2.71Z"/><path class="cls-1" d="M169.75,36.41c0-3.72,2.82-6.23,6.52-6.23a5.56,5.56,0,0,1,5.26,3.23l-2.67,1.26a2.89,2.89,0,0,0-2.58-1.75,3.49,3.49,0,0,0,0,7,2.89,2.89,0,0,0,2.58-1.75l2.67,1.27a5.6,5.6,0,0,1-5.26,3.23C172.57,42.64,169.75,40.11,169.75,36.41Z"/><path class="cls-1" d="M191.35,42.43V37.58h-5v4.84h-3.11V30.37h3.11v4.5h5v-4.5h3.11V42.43Z"/><path class="cls-1" d="M197,42.43V30.37h8.84v2.71h-5.73V35h5.6v2.71h-5.6v2h5.73v2.71Z"/><path class="cls-1" d="M207.38,36.41c0-3.72,2.82-6.23,6.52-6.23a5.56,5.56,0,0,1,5.26,3.23l-2.67,1.26a2.89,2.89,0,0,0-2.58-1.75,3.49,3.49,0,0,0,0,7,2.89,2.89,0,0,0,2.58-1.75l2.67,1.27a5.6,5.6,0,0,1-5.26,3.23C210.2,42.64,207.38,40.11,207.38,36.41Z"/><path class="cls-1" d="M227.94,42.43l-3.16-4.54-.81,1v3.52h-3.11V30.37H224v5l3.7-5h3.83L226.82,36l4.93,6.41Z"/><path class="cls-1" d="M231.23,37.42V35.09h4.34v2.33Z"/><path class="cls-1" d="M237.55,37.55V30.37h3.16v7.07a2.54,2.54,0,0,0,5.08,0V30.37h3.14v7.16c0,3-1.83,5.11-5.67,5.11S237.55,40.51,237.55,37.55Z"/><path class="cls-1" d="M251.47,42.43V30.37h6a4,4,0,1,1,0,8h-2.93v4Zm7.07-8a1.29,1.29,0,0,0-1.45-1.3h-2.51v2.58h2.51A1.29,1.29,0,0,0,258.53,34.39Z"/><path class="cls-1" d="M28,51,19.54,34.12H12.93V51H0V.83H25.1c11.12,0,17.44,7.36,17.44,16.68,0,8.72-5.34,13.38-10,15L42.76,51Zm1.43-33.52c0-3.38-2.85-5.34-6.24-5.34H12.93V22.85H23.15C26.53,22.85,29.38,21,29.38,17.44Z"/><path class="cls-1" d="M48.63,25.93C48.63,10.45,60.35,0,75.76,0c12.1,0,18.56,6.84,21.87,13.45L86.5,18.71a12,12,0,0,0-10.75-7.29c-8.19,0-14,6.31-14,14.5s5.79,14.5,14,14.5A12,12,0,0,0,86.5,33.14L97.63,38.4c-3.23,6.46-9.77,13.45-21.87,13.45C60.35,51.86,48.63,41.33,48.63,25.93Z"/><path class="cls-1" d="M105.11,28.51a23.8,23.8,0,0,0,47.6,0V.85H139.85V28.51a10.94,10.94,0,1,1-21.87,0V.85H105.11Z"/><path class="cls-2" d="M129,52.31a23.65,23.65,0,0,1-16.84-7l9.07-9.07a11,11,0,0,0,15.54,0l9.07,9.07A23.65,23.65,0,0,1,129,52.31Z"/></g></g></svg>