<svg xmlns="http://www.w3.org/2000/svg" viewBox="0 0 296.38 71.63"><defs><style>.cls-1{fill:#e75166;}.cls-2{font-size:18px;font-family:TTNorms-ExtraBold, TTNorms ExtraBold;font-weight:700;}.cls-2,.cls-8{fill:#500050;}.cls-3{letter-spacing:-0.08em;}.cls-4{letter-spacing:-0.01em;}.cls-5{letter-spacing:-0.01em;}.cls-6{letter-spacing:-0.08em;}.cls-7{letter-spacing:0.02em;}</style></defs><title>06</title><g id="Layer_2" data-name="Layer 2"><g id="web"><path class="cls-1" d="M88.23,16.44A25.54,25.54,0,0,1,70,8.86L78.84,0a13.14,13.14,0,0,0,9.39,3.92A13.14,13.14,0,0,0,97.62,0l8.79,8.86A25.54,25.54,0,0,1,88.23,16.44Z"/><text class="cls-2" transform="translate(184.01 45.71)"><tspan class="cls-3">Р</tspan><tspan x="8.06" y="0">А</tspan><tspan class="cls-4" x="19.08" y="0">Б</tspan><tspan class="cls-5" x="28.69" y="0">О</tspan><tspan class="cls-6" x="40.95" y="0">Т</tspan><tspan x="48.44" y="0">А</tspan><tspan x="0" y="17.94">С ВИКИП</tspan><tspan class="cls-7" x="68.96" y="17.94">Е</tspan><tspan x="78.17" y="17.94">ДИА</tspan></text><path class="cls-8" d="M29.88,71.63H18.14L0,23.25H16.39l8.3,29.38,8.64-29.38H44.39L53,52.64l8.3-29.38H75.46L59.57,71.63H47.83l-9-28Z"/><path class="cls-8" d="M81.67,23.25H94.79V71.63H81.67Z"/><path class="cls-8" d="M118.94,59.18V71.63H105.82V23.25h13.12V41.91l15.89-18.66H150l-17.27,20,18.66,28.34H136.21L124.14,53.31Z"/><path class="cls-8" d="M156.25,23.25h13.12V71.63H156.25Z"/></g></g></svg>