<svg xmlns="http://www.w3.org/2000/svg" viewBox="0 0 640 640"><defs><style>.cls-1{fill:#4f1650;}.cls-2{fill:none;stroke:#fff;stroke-miterlimit:10;stroke-width:2px;}.cls-3{fill:#ef5261;}</style></defs><title>G4</title><g id="Layer_1" data-name="Layer 1"><path class="cls-1" d="M127.85,317.92a4.45,4.45,0,0,1,1.13.48,7.61,7.61,0,0,1,.78.55,3.33,3.33,0,0,1,.49.47l.15.19-1,1-.12-.15a4,4,0,0,0-.36-.36,3.43,3.43,0,0,0-.6-.45,4,4,0,0,0-.84-.35,3.66,3.66,0,0,0-1.09-.16,3.64,3.64,0,1,0,0,7.28,3.7,3.7,0,0,0,1.1-.16,3.4,3.4,0,0,0,.87-.39,6,6,0,0,0,.61-.45,3.19,3.19,0,0,0,.39-.38l.11-.17,1,1-.17.22a5.61,5.61,0,0,1-.5.47,5.77,5.77,0,0,1-.82.59,5.09,5.09,0,0,1-1.13.47,5.31,5.31,0,0,1-5.13-1.25,5,5,0,0,1,0-7.15,5.06,5.06,0,0,1,3.69-1.46A5.22,5.22,0,0,1,127.85,317.92Z"/><path class="cls-1" d="M133.84,317.86H138a3.11,3.11,0,0,1,2.26.87,2.87,2.87,0,0,1,.9,2.15,3.06,3.06,0,0,1-.21,1.13,2.51,2.51,0,0,1-.49.82,5.51,5.51,0,0,1-.57.53,2.13,2.13,0,0,1-.49.31l-.2.09,2.24,3.92h-1.68l-2.1-3.78h-2.24v3.78h-1.54Zm5.27,1.86a1.55,1.55,0,0,0-1.14-.46h-2.59v3.22H138a1.62,1.62,0,0,0,1.14-2.76Z"/><path class="cls-1" d="M152.1,326.26v1.4H145v-9.8H152v1.4h-5.39v2.59h4.27v1.4h-4.27v3Z"/><path class="cls-1" d="M158.54,317.86h1.54l4.06,9.8h-1.61l-1.05-2.59h-4.34l-1.05,2.59h-1.61Zm-.84,5.81h3.22l-1.61-4.06Z"/><path class="cls-1" d="M172.68,317.86v1.4h-2.94v8.4H168.2v-8.4h-2.94v-1.4Z"/><path class="cls-1" d="M176.13,319.18a5.38,5.38,0,0,1,7.38,0,5,5,0,0,1,0,7.15,5.38,5.38,0,0,1-7.38,0,5,5,0,0,1,0-7.15Zm1.1,6.16a3.68,3.68,0,1,0-1.06-2.58A3.51,3.51,0,0,0,177.23,325.34Z"/><path class="cls-1" d="M188.64,317.86h4.13a3.11,3.11,0,0,1,2.26.87,2.87,2.87,0,0,1,.9,2.15,3.06,3.06,0,0,1-.21,1.13,2.51,2.51,0,0,1-.49.82,5.51,5.51,0,0,1-.57.53,2.13,2.13,0,0,1-.49.31l-.2.09,2.24,3.92h-1.68l-2.1-3.78h-2.24v3.78h-1.54Zm5.27,1.86a1.55,1.55,0,0,0-1.14-.46h-2.59v3.22h2.59a1.62,1.62,0,0,0,1.14-2.76Z"/><path class="cls-1" d="M204.17,324.1a2,2,0,0,0-.74-.48,8.69,8.69,0,0,0-1-.31,10.94,10.94,0,0,1-1.11-.35,5.37,5.37,0,0,1-1-.49,2.15,2.15,0,0,1-.74-.82,2.64,2.64,0,0,1-.29-1.28,2.42,2.42,0,0,1,.87-1.9,3.44,3.44,0,0,1,2.35-.76,4.08,4.08,0,0,1,1,.13,3.81,3.81,0,0,1,.83.31,5.66,5.66,0,0,1,.58.36,2.38,2.38,0,0,1,.37.31l.11.14-1,1-.08-.09a1.67,1.67,0,0,0-.23-.21,2.81,2.81,0,0,0-.39-.25,2.45,2.45,0,0,0-.55-.2,2.78,2.78,0,0,0-.71-.09,1.87,1.87,0,0,0-1.22.38,1.11,1.11,0,0,0-.46.88,1.07,1.07,0,0,0,.29.76,1.94,1.94,0,0,0,.74.48,8.69,8.69,0,0,0,1,.31q.55.14,1.11.34a5.28,5.28,0,0,1,1,.49,2.15,2.15,0,0,1,.74.82,2.65,2.65,0,0,1,.29,1.27,2.69,2.69,0,0,1-.93,2.12,3.75,3.75,0,0,1-2.57.82,4.93,4.93,0,0,1-1.27-.16,4.15,4.15,0,0,1-1-.38,5.46,5.46,0,0,1-.68-.45,3.12,3.12,0,0,1-.42-.38l-.14-.17,1-1,.09.12a3.5,3.5,0,0,0,.79.62,3.23,3.23,0,0,0,.71.27,3.53,3.53,0,0,0,.93.12,2.16,2.16,0,0,0,1.44-.44,1.39,1.39,0,0,0,.53-1.1A1.06,1.06,0,0,0,204.17,324.1Z"/><path class="cls-1" d="M367.71,474.45a4.38,4.38,0,0,1,1.13.47,7.61,7.61,0,0,1,.78.55,3.33,3.33,0,0,1,.49.47l.15.19-1,1-.12-.15a4.15,4.15,0,0,0-.36-.36,3.49,3.49,0,0,0-.6-.45,4.05,4.05,0,0,0-.84-.35,3.63,3.63,0,0,0-1.09-.16,3.64,3.64,0,1,0,0,7.28,3.73,3.73,0,0,0,1.1-.16,3.43,3.43,0,0,0,.87-.39,6.2,6.2,0,0,0,.61-.45,3.26,3.26,0,0,0,.39-.38l.11-.17,1,1-.17.21a5.29,5.29,0,0,1-.5.47,5.77,5.77,0,0,1-.82.59,5.33,5.33,0,0,1-6.27-.79,5,5,0,0,1,0-7.15,5.06,5.06,0,0,1,3.69-1.46A5.15,5.15,0,0,1,367.71,474.45Z"/><path class="cls-1" d="M374.34,475.71a5.38,5.38,0,0,1,7.38,0,5,5,0,0,1,0,7.15,5.38,5.38,0,0,1-7.38,0,5,5,0,0,1,0-7.15Zm1.1,6.16a3.68,3.68,0,1,0-1.06-2.58A3.51,3.51,0,0,0,375.45,481.87Z"/><path class="cls-1" d="M395.18,474.39v9.8h-1.33l-5.46-7.07v7.07h-1.54v-9.8h1.33l5.46,7.08v-7.08Z"/><path class="cls-1" d="M407.71,474.39v9.8h-1.33l-5.46-7.07v7.07h-1.54v-9.8h1.33l5.46,7.08v-7.08Z"/><path class="cls-1" d="M419,482.79v1.4h-7.07v-9.8h6.93v1.4h-5.39v2.59h4.27v1.4h-4.27v3Z"/><path class="cls-1" d="M428.53,474.45a4.38,4.38,0,0,1,1.13.47,7.61,7.61,0,0,1,.78.55,3.33,3.33,0,0,1,.49.47l.15.19-1,1L430,477a4.15,4.15,0,0,0-.36-.36,3.49,3.49,0,0,0-.6-.45,4.05,4.05,0,0,0-.84-.35,3.63,3.63,0,0,0-1.09-.16,3.64,3.64,0,1,0,0,7.28,3.73,3.73,0,0,0,1.1-.16,3.43,3.43,0,0,0,.87-.39,6.2,6.2,0,0,0,.61-.45,3.26,3.26,0,0,0,.39-.38l.11-.17,1,1-.17.21a5.53,5.53,0,0,1-.5.47,5.66,5.66,0,0,1-.82.59,5.33,5.33,0,0,1-6.26-.79,5,5,0,0,1,0-7.15,5.06,5.06,0,0,1,3.69-1.46A5.15,5.15,0,0,1,428.53,474.45Z"/><path class="cls-1" d="M440.81,474.39v1.4h-2.94v8.4h-1.54v-8.4h-2.94v-1.4Z"/><path class="cls-1" d="M444.26,475.71a5.38,5.38,0,0,1,7.38,0,5,5,0,0,1,0,7.15,5.38,5.38,0,0,1-7.38,0,5,5,0,0,1,0-7.15Zm1.1,6.16a3.68,3.68,0,1,0-1.06-2.58A3.51,3.51,0,0,0,445.37,481.87Z"/><path class="cls-1" d="M456.77,474.39h4.13a3.11,3.11,0,0,1,2.26.87,2.87,2.87,0,0,1,.9,2.15,3,3,0,0,1-.21,1.12,2.49,2.49,0,0,1-.49.82,5.51,5.51,0,0,1-.57.53,2.13,2.13,0,0,1-.49.31l-.2.09,2.24,3.92h-1.68l-2.1-3.78h-2.24v3.78h-1.54Zm5.27,1.86a1.55,1.55,0,0,0-1.14-.46h-2.59V479h2.59a1.62,1.62,0,0,0,1.14-2.76Z"/><path class="cls-1" d="M472.3,480.63a2,2,0,0,0-.74-.48,9.3,9.3,0,0,0-1-.31,10.69,10.69,0,0,1-1.11-.34,5.37,5.37,0,0,1-1-.49,2.15,2.15,0,0,1-.74-.82,2.64,2.64,0,0,1-.29-1.27,2.42,2.42,0,0,1,.87-1.9,3.44,3.44,0,0,1,2.35-.76,4.08,4.08,0,0,1,1,.13,3.81,3.81,0,0,1,.83.31,5.49,5.49,0,0,1,.58.36,2.33,2.33,0,0,1,.37.31l.11.14-1,1-.08-.09a1.55,1.55,0,0,0-.23-.21,2.92,2.92,0,0,0-.39-.25,2.55,2.55,0,0,0-.55-.2,2.78,2.78,0,0,0-.71-.09,1.87,1.87,0,0,0-1.22.38,1.11,1.11,0,0,0-.46.88,1.07,1.07,0,0,0,.29.76,2,2,0,0,0,.74.48,9.3,9.3,0,0,0,1,.31,11.17,11.17,0,0,1,1.11.34,5.22,5.22,0,0,1,1,.49,2.15,2.15,0,0,1,.74.82,2.65,2.65,0,0,1,.29,1.27,2.69,2.69,0,0,1-.93,2.12,3.75,3.75,0,0,1-2.57.82,5,5,0,0,1-1.27-.16,4.23,4.23,0,0,1-1-.38,5.57,5.57,0,0,1-.68-.45,3.12,3.12,0,0,1-.42-.38l-.14-.17,1-1,.09.12a2.74,2.74,0,0,0,.29.27,2.9,2.9,0,0,0,.5.34,3.23,3.23,0,0,0,.71.27,3.57,3.57,0,0,0,.93.12,2.16,2.16,0,0,0,1.44-.44,1.39,1.39,0,0,0,.53-1.1A1.06,1.06,0,0,0,472.3,480.63Z"/><path class="cls-1" d="M306.79,317.92a4.38,4.38,0,0,1,1.13.47,7.61,7.61,0,0,1,.78.55,3.33,3.33,0,0,1,.49.47l.15.19-1,1-.12-.15a4.15,4.15,0,0,0-.36-.36,3.49,3.49,0,0,0-.6-.45,4.05,4.05,0,0,0-.84-.35,3.63,3.63,0,0,0-1.09-.16,3.64,3.64,0,1,0,0,7.28,3.73,3.73,0,0,0,1.1-.16,3.43,3.43,0,0,0,.87-.39,6.2,6.2,0,0,0,.61-.45,3.26,3.26,0,0,0,.39-.38l.11-.17,1,1-.17.21a5.53,5.53,0,0,1-.5.47,5.66,5.66,0,0,1-.82.59,5.33,5.33,0,0,1-6.26-.79,5,5,0,0,1,0-7.15,5.06,5.06,0,0,1,3.69-1.46A5.15,5.15,0,0,1,306.79,317.92Z"/><path class="cls-1" d="M315.72,317.86h1.54l4.06,9.8h-1.61l-1.05-2.59h-4.34l-1.05,2.59h-1.61Zm-.84,5.81h3.22l-1.61-4.06Z"/><path class="cls-1" d="M329.85,317.86v1.4h-2.94v8.4h-1.54v-8.4h-2.94v-1.4Z"/><path class="cls-1" d="M335,317.86h1.54l4.06,9.8H339L338,325.07h-4.34l-1.05,2.59H331Zm-.84,5.81h3.22l-1.61-4.06Z"/><path class="cls-1" d="M343.71,327.66v-9.8h1.54v8.4H350v1.4Z"/><path class="cls-1" d="M355.33,322.55l2.66-4.69h1.68l-3.58,6.3v3.5h-1.54v-3.5l-3.57-6.3h1.68Z"/><path class="cls-1" d="M367.08,324.1a2,2,0,0,0-.74-.48,9.3,9.3,0,0,0-1-.31,10.69,10.69,0,0,1-1.11-.34,5.37,5.37,0,0,1-1-.49,2.15,2.15,0,0,1-.74-.82,2.64,2.64,0,0,1-.29-1.27,2.42,2.42,0,0,1,.87-1.9,3.44,3.44,0,0,1,2.35-.76,4.08,4.08,0,0,1,1,.13,3.81,3.81,0,0,1,.83.31,5.49,5.49,0,0,1,.58.36,2.33,2.33,0,0,1,.37.31l.11.14-1,1-.08-.09a1.55,1.55,0,0,0-.23-.21,2.92,2.92,0,0,0-.39-.25,2.55,2.55,0,0,0-.55-.2,2.78,2.78,0,0,0-.71-.09,1.87,1.87,0,0,0-1.22.38,1.11,1.11,0,0,0-.46.88,1.07,1.07,0,0,0,.29.76,2,2,0,0,0,.74.48,9.3,9.3,0,0,0,1,.31,11.17,11.17,0,0,1,1.11.34,5.22,5.22,0,0,1,1,.49,2.15,2.15,0,0,1,.74.82,2.65,2.65,0,0,1,.29,1.27A2.69,2.69,0,0,1,368,327a3.75,3.75,0,0,1-2.57.82,5,5,0,0,1-1.27-.16,4.23,4.23,0,0,1-1-.38,5.57,5.57,0,0,1-.68-.45,3.12,3.12,0,0,1-.42-.38l-.14-.17,1-1,.09.12a2.74,2.74,0,0,0,.29.27,2.9,2.9,0,0,0,.5.34,3.23,3.23,0,0,0,.71.27,3.57,3.57,0,0,0,.93.12,2.16,2.16,0,0,0,1.44-.44,1.39,1.39,0,0,0,.53-1.1A1.06,1.06,0,0,0,367.08,324.1Z"/><path class="cls-1" d="M378.42,317.86v1.4h-2.94v8.4h-1.54v-8.4H371v-1.4Z"/><path class="cls-1" d="M386.11,324.1a2,2,0,0,0-.74-.48,9.3,9.3,0,0,0-1-.31,10.69,10.69,0,0,1-1.11-.34,5.37,5.37,0,0,1-1-.49,2.15,2.15,0,0,1-.74-.82,2.64,2.64,0,0,1-.29-1.27,2.42,2.42,0,0,1,.87-1.9,3.44,3.44,0,0,1,2.35-.76,4.08,4.08,0,0,1,1,.13,3.81,3.81,0,0,1,.83.31,5.49,5.49,0,0,1,.58.36,2.33,2.33,0,0,1,.37.31l.11.14-1,1-.08-.09a1.55,1.55,0,0,0-.23-.21,2.92,2.92,0,0,0-.39-.25,2.55,2.55,0,0,0-.55-.2,2.78,2.78,0,0,0-.71-.09,1.87,1.87,0,0,0-1.22.38,1.11,1.11,0,0,0-.46.88,1.07,1.07,0,0,0,.29.76,2,2,0,0,0,.74.48,9.3,9.3,0,0,0,1,.31,11.17,11.17,0,0,1,1.11.34,5.22,5.22,0,0,1,1,.49,2.15,2.15,0,0,1,.74.82,2.65,2.65,0,0,1,.29,1.27A2.69,2.69,0,0,1,387,327a3.75,3.75,0,0,1-2.57.82,5,5,0,0,1-1.27-.16,4.23,4.23,0,0,1-1-.38,5.57,5.57,0,0,1-.68-.45,3.12,3.12,0,0,1-.42-.38l-.14-.17,1-1,.09.12a2.74,2.74,0,0,0,.29.27,2.9,2.9,0,0,0,.5.34,3.23,3.23,0,0,0,.71.27,3.57,3.57,0,0,0,.93.12,2.16,2.16,0,0,0,1.44-.44,1.39,1.39,0,0,0,.53-1.1A1.06,1.06,0,0,0,386.11,324.1Z"/><path class="cls-2" d="M481.87,287.31a153.79,153.79,0,0,1,40.83,34.43,154.11,154.11,0,1,0-262-153,154.8,154.8,0,0,1,50,18.61Z"/><path class="cls-2" d="M251.26,223a154.8,154.8,0,0,1,9.44-54.21,154.11,154.11,0,1,0-1.53,303.34,154.8,154.8,0,0,1-8.92-53Z"/><path class="cls-2" d="M481.86,355.56a153.81,153.81,0,0,0,40.84-33.82,153.79,153.79,0,0,0-40.83-34.43l-171.2-100a154.8,154.8,0,0,0-50-18.61A154.8,154.8,0,0,0,251.26,223l-1,196.16a154.8,154.8,0,0,0,8.92,53,153.8,153.8,0,0,0,49.94-18ZM263.6,369.06A96.38,96.38,0,1,1,395.2,404.56,96.38,96.38,0,0,1,263.6,369.06Z"/><path class="cls-2" d="M481.86,355.56,309.1,454a153.8,153.8,0,0,1-49.94,18A154.11,154.11,0,1,0,522.7,321.74,153.81,153.81,0,0,1,481.86,355.56Z"/><path class="cls-1" d="M378,157.91v1.4H370.9v-9.8h6.93v1.4h-5.39v2.59h4.27v1.4h-4.27v3Z"/><path class="cls-1" d="M387.35,149.51h1.82l-3.36,4.69,3.64,5.11h-1.82l-2.73-3.85-2.73,3.85h-1.82L384,154.2l-3.36-4.69h1.82l2.45,3.43Z"/><path class="cls-1" d="M396.44,149.51a3.24,3.24,0,0,1,2.35.92,3.11,3.11,0,0,1,0,4.47,3.25,3.25,0,0,1-2.35.92h-2.38v3.5h-1.54v-9.8Zm-2.38,1.4v3.5h2.38a1.71,1.71,0,0,0,1.24-.5,1.77,1.77,0,0,0,0-2.49,1.7,1.7,0,0,0-1.24-.51Z"/><path class="cls-1" d="M403.37,159.31v-9.8h1.54v8.4h4.76v1.4Z"/><path class="cls-1" d="M413.26,150.84a5.38,5.38,0,0,1,7.38,0,5,5,0,0,1,0,7.15,5.38,5.38,0,0,1-7.38,0,5,5,0,0,1,0-7.15Zm1.1,6.16a3.69,3.69,0,1,0-1.06-2.58A3.51,3.51,0,0,0,414.36,157Z"/><path class="cls-1" d="M425.76,149.51h4.13a3.11,3.11,0,0,1,2.26.87,2.87,2.87,0,0,1,.9,2.15,3.06,3.06,0,0,1-.21,1.13,2.51,2.51,0,0,1-.49.82,5.51,5.51,0,0,1-.57.53,2.13,2.13,0,0,1-.49.31l-.2.09,2.24,3.92h-1.68l-2.1-3.78H427.3v3.78h-1.54Zm5.27,1.86a1.56,1.56,0,0,0-1.15-.46H427.3v3.22h2.59a1.62,1.62,0,0,0,1.15-2.76Z"/><path class="cls-1" d="M444,157.91v1.4H437v-9.8h6.93v1.4H438.5v2.59h4.27v1.4H438.5v3Z"/><path class="cls-1" d="M447.53,149.51h4.13a3.11,3.11,0,0,1,2.26.87,2.87,2.87,0,0,1,.9,2.15,3.06,3.06,0,0,1-.21,1.13,2.51,2.51,0,0,1-.49.82,5.51,5.51,0,0,1-.57.53,2.13,2.13,0,0,1-.49.31l-.2.09,2.24,3.92h-1.68l-2.1-3.78h-2.24v3.78h-1.54Zm5.27,1.86a1.55,1.55,0,0,0-1.14-.46h-2.59v3.22h2.59a1.62,1.62,0,0,0,1.14-2.76Z"/><path class="cls-1" d="M463.06,155.76a2,2,0,0,0-.74-.48,8.69,8.69,0,0,0-1-.31,10.94,10.94,0,0,1-1.11-.35,5.37,5.37,0,0,1-1-.49,2.15,2.15,0,0,1-.74-.82,2.64,2.64,0,0,1-.29-1.28,2.42,2.42,0,0,1,.87-1.9,3.44,3.44,0,0,1,2.35-.76,4.08,4.08,0,0,1,1,.13,3.81,3.81,0,0,1,.83.31,5.66,5.66,0,0,1,.58.36,2.38,2.38,0,0,1,.37.31l.11.14-1,1-.08-.09a1.51,1.51,0,0,0-.23-.21,2.79,2.79,0,0,0-.39-.25,2.5,2.5,0,0,0-.55-.2,2.79,2.79,0,0,0-.71-.09,1.87,1.87,0,0,0-1.22.38,1.12,1.12,0,0,0-.46.88,1.07,1.07,0,0,0,.29.76,1.93,1.93,0,0,0,.74.48,8.62,8.62,0,0,0,1,.31q.55.14,1.11.34a5.24,5.24,0,0,1,1,.49,2.14,2.14,0,0,1,.74.82,2.65,2.65,0,0,1,.29,1.27,2.69,2.69,0,0,1-.93,2.12,3.75,3.75,0,0,1-2.57.82,5,5,0,0,1-1.28-.16,4.17,4.17,0,0,1-1-.38,5.46,5.46,0,0,1-.68-.45,3.12,3.12,0,0,1-.42-.38l-.14-.17,1-1,.09.12a3,3,0,0,0,.29.27,3.13,3.13,0,0,0,.5.34,3.26,3.26,0,0,0,.71.27,3.54,3.54,0,0,0,.93.12,2.16,2.16,0,0,0,1.44-.44,1.39,1.39,0,0,0,.53-1.1A1.06,1.06,0,0,0,463.06,155.76Z"/></g><g id="Layer_5" data-name="Layer 5"><path class="cls-3" d="M347,232.43A88.59,88.59,0,1,1,258.41,321,88.69,88.69,0,0,1,347,232.43M347,221A100,100,0,1,0,447,321,100,100,0,0,0,347,221Z"/></g></svg>