<svg xmlns="http://www.w3.org/2000/svg" viewBox="0 0 483.13 510.13"><defs><style>.cls-1,.cls-16{fill:none;stroke-miterlimit:10;}.cls-1{stroke:#fff;stroke-width:2px;}.cls-17,.cls-2,.cls-6,.cls-8{font-size:14px;fill:#500050;font-family:TTNorms-Medium, TTNorms Medium;}.cls-14,.cls-2{letter-spacing:0.1em;}.cls-3{letter-spacing:0.02em;}.cls-4{letter-spacing:0.07em;}.cls-17,.cls-5{letter-spacing:0.1em;}.cls-6{letter-spacing:0.08em;}.cls-7{letter-spacing:0.13em;}.cls-8{letter-spacing:0.1em;}.cls-9{letter-spacing:0.02em;}.cls-10{letter-spacing:0.02em;}.cls-11{letter-spacing:0.02em;}.cls-12{letter-spacing:0.09em;}.cls-13{letter-spacing:0.09em;}.cls-15{fill:#fff;}.cls-16{stroke:#ee5060;stroke-width:11px;}.cls-18{letter-spacing:0.06em;}</style></defs><title>g4_2</title><g id="Layer_2" data-name="Layer 2"><g id="web"><circle class="cls-1" cx="270.45" cy="254.57" r="96.5"/><circle class="cls-1" cx="269.87" cy="253.92" r="96.38" transform="translate(15.54 523.4) rotate(-89.91)"/><text class="cls-2" transform="translate(51.75 261.29)">CRE<tspan class="cls-3" x="26.74" y="0">A</tspan><tspan class="cls-4" x="35.63" y="0">T</tspan><tspan class="cls-5" x="43.61" y="0">ORS</tspan></text><text class="cls-6" transform="translate(293.71 417.82)">C<tspan class="cls-5" x="9.23" y="0">ONNE</tspan><tspan class="cls-7" x="49.78" y="0">C</tspan><tspan class="cls-4" x="59.7" y="0">T</tspan><tspan class="cls-5" x="67.67" y="0">ORS</tspan></text><text class="cls-8" transform="translate(230.01 261.29)">C<tspan class="cls-9" x="9.58" y="0">A</tspan><tspan class="cls-10" x="18.47" y="0">T</tspan><tspan class="cls-5" x="25.77" y="0">A</tspan><tspan class="cls-11" x="35.74" y="0">L</tspan><tspan class="cls-12" x="42.57" y="0">Y</tspan><tspan class="cls-5" x="51.37" y="0">S</tspan><tspan class="cls-13" x="59.67" y="0">T</tspan><tspan class="cls-14" x="67.94" y="0">S</tspan></text><path class="cls-1" d="M231.73,387.44A153.79,153.79,0,0,1,181.5,405.6,154.11,154.11,0,1,0,445,255.14a154.8,154.8,0,0,1-41.1,34Z"/><path class="cls-1" d="M402.73,219.87A154.8,154.8,0,0,1,445,255.14,154.11,154.11,0,1,0,183,102.19a154.8,154.8,0,0,1,50.33,18.74Z"/><path class="cls-1" d="M172.62,353.32a153.81,153.81,0,0,0,8.88,52.28,153.79,153.79,0,0,0,50.23-18.16l172.14-98.32a154.8,154.8,0,0,0,41.1-34,154.8,154.8,0,0,0-42.24-35.27L233.34,120.94A154.8,154.8,0,0,0,183,102.19a153.8,153.8,0,0,0-9.33,52.27ZM270,157.54a96.38,96.38,0,1,1-96.53,96.23A96.38,96.38,0,0,1,270,157.54Z"/><path class="cls-1" d="M172.62,353.32l1.06-198.85A153.8,153.8,0,0,1,183,102.19,154.11,154.11,0,1,0,181.5,405.6,153.81,153.81,0,0,1,172.62,353.32Z"/><path class="cls-15" d="M269.27,164.79h.14A87.61,87.61,0,0,1,314,177l0,0,0,0,84.92,49.58.05,0,.05,0a146.24,146.24,0,0,1-72.11,273.46h-.6a146.1,146.1,0,0,1-145.64-146.8l.54-102.24a85.06,85.06,0,0,1,25.83-61.22,88.49,88.49,0,0,1,62.22-25.09m0-10c-53.89,0-98,42.38-98,96.29l-.54,102.2a156.1,156.1,0,0,0,155.6,156.85h.64A156.26,156.26,0,0,0,404,218L319.05,168.4a97.26,97.26,0,0,0-49.63-13.61Z"/><path class="cls-16" d="M294.27,163.22a94.19,94.19,0,0,0-115.47,66.4"/><text class="cls-17" transform="translate(301.94 92.94)">EXP<tspan class="cls-18" x="26.53" y="0">L</tspan><tspan x="33.99" y="0">ORERS</tspan></text></g></g></svg>