<svg xmlns="http://www.w3.org/2000/svg" viewBox="0 0 484 510.22"><defs><style>.cls-1,.cls-17,.cls-5,.cls-7{font-size:14px;fill:#500050;font-family:TTNorms-Medium, TTNorms Medium;}.cls-1,.cls-13{letter-spacing:0.1em;}.cls-2{letter-spacing:0.02em;}.cls-3{letter-spacing:0.07em;}.cls-17,.cls-4{letter-spacing:0.1em;}.cls-5{letter-spacing:0.08em;}.cls-6{letter-spacing:0.13em;}.cls-7{letter-spacing:0.1em;}.cls-8{letter-spacing:0.02em;}.cls-9{letter-spacing:0.02em;}.cls-10{letter-spacing:0.02em;}.cls-11{letter-spacing:0.09em;}.cls-12{letter-spacing:0.09em;}.cls-14,.cls-16{fill:none;stroke-miterlimit:10;}.cls-14{stroke:#fff;stroke-width:2px;}.cls-15{fill:#fff;}.cls-16{stroke:#ee5060;stroke-width:11px;}.cls-18{letter-spacing:0.06em;}</style></defs><title>g4_3</title><g id="Layer_2" data-name="Layer 2"><g id="web"><text class="cls-1" transform="translate(50.8 262.27)">CRE<tspan class="cls-2" x="26.74" y="0">A</tspan><tspan class="cls-3" x="35.63" y="0">T</tspan><tspan class="cls-4" x="43.61" y="0">ORS</tspan></text><text class="cls-5" transform="translate(292.76 418.8)">C<tspan class="cls-4" x="9.23" y="0">ONNE</tspan><tspan class="cls-6" x="49.78" y="0">C</tspan><tspan class="cls-3" x="59.7" y="0">T</tspan><tspan class="cls-4" x="67.67" y="0">ORS</tspan></text><text class="cls-7" transform="translate(229.06 262.27)">C<tspan class="cls-8" x="9.58" y="0">A</tspan><tspan class="cls-9" x="18.47" y="0">T</tspan><tspan class="cls-4" x="25.77" y="0">A</tspan><tspan class="cls-10" x="35.74" y="0">L</tspan><tspan class="cls-11" x="42.57" y="0">Y</tspan><tspan class="cls-4" x="51.37" y="0">S</tspan><tspan class="cls-12" x="59.67" y="0">T</tspan><tspan class="cls-13" x="67.94" y="0">S</tspan></text><path class="cls-14" d="M404.37,221.92a153.79,153.79,0,0,1,40.83,34.43,154.11,154.11,0,1,0-262-153,154.8,154.8,0,0,1,50,18.61Z"/><path class="cls-14" d="M173.76,157.57a154.8,154.8,0,0,1,9.44-54.21,154.11,154.11,0,1,0-1.53,303.34,154.8,154.8,0,0,1-8.92-53Z"/><path class="cls-14" d="M404.36,290.17a153.81,153.81,0,0,0,40.84-33.82,153.79,153.79,0,0,0-40.83-34.43L233.17,122a154.8,154.8,0,0,0-50-18.61,154.8,154.8,0,0,0-9.44,54.21l-1,196.16a154.8,154.8,0,0,0,8.92,53,153.8,153.8,0,0,0,49.94-18ZM186.1,303.67A96.38,96.38,0,1,1,317.7,339.17,96.38,96.38,0,0,1,186.1,303.67Z"/><path class="cls-14" d="M404.36,290.17,231.6,388.65a153.8,153.8,0,0,1-49.94,18A154.11,154.11,0,1,0,445.2,256.35,153.81,153.81,0,0,1,404.36,290.17Z"/><path class="cls-15" d="M327.6,10A146.17,146.17,0,0,1,454.69,83.67a146.1,146.1,0,0,1-54.35,199.51l-88.82,50.63a85.66,85.66,0,0,1-42.62,11.46c-31.16,0-60.36-17.13-76.21-44.7A87.61,87.61,0,0,1,181,255.89v-.07l.5-98.33v-.12A146.33,146.33,0,0,1,327.6,10m0-10A156.34,156.34,0,0,0,171.5,157.44l-.5,98.33a98.72,98.72,0,0,0,97.9,99.5,95.14,95.14,0,0,0,47.6-12.79l88.79-50.61A156.24,156.24,0,0,0,327.6,0Z"/><path class="cls-16" d="M178.9,279.83a94.19,94.19,0,0,0,115.23,66.82"/><text class="cls-17" transform="translate(300.99 93.93)">EXP<tspan class="cls-18" x="26.53" y="0">L</tspan><tspan x="33.99" y="0">ORERS</tspan></text></g></g></svg>