<svg xmlns="http://www.w3.org/2000/svg" viewBox="0 0 484.22 509.06"><defs><style>.cls-1,.cls-16{fill:none;stroke-miterlimit:10;}.cls-1{stroke:#fff;stroke-width:2px;}.cls-17,.cls-2,.cls-6,.cls-8{font-size:14px;fill:#500050;font-family:TTNorms-Medium, TTNorms Medium;}.cls-14,.cls-2{letter-spacing:0.1em;}.cls-3{letter-spacing:0.02em;}.cls-4{letter-spacing:0.07em;}.cls-17,.cls-5{letter-spacing:0.1em;}.cls-6{letter-spacing:0.08em;}.cls-7{letter-spacing:0.13em;}.cls-8{letter-spacing:0.1em;}.cls-9{letter-spacing:0.02em;}.cls-10{letter-spacing:0.02em;}.cls-11{letter-spacing:0.02em;}.cls-12{letter-spacing:0.09em;}.cls-13{letter-spacing:0.09em;}.cls-15{fill:#fff;}.cls-16{stroke:#ee5060;stroke-width:11px;}.cls-18{letter-spacing:0.06em;}</style></defs><title>g4_5</title><g id="Layer_2" data-name="Layer 2"><g id="web"><circle class="cls-1" cx="271.36" cy="254.25" r="96.38" transform="translate(-84.93 360.73) rotate(-59.78)"/><text class="cls-2" transform="translate(52.24 261.89)">CRE<tspan class="cls-3" x="26.74" y="0">A</tspan><tspan class="cls-4" x="35.63" y="0">T</tspan><tspan class="cls-5" x="43.61" y="0">ORS</tspan></text><text class="cls-6" transform="translate(294.2 418.42)">C<tspan class="cls-5" x="9.23" y="0">ONNE</tspan><tspan class="cls-7" x="49.78" y="0">C</tspan><tspan class="cls-4" x="59.7" y="0">T</tspan><tspan class="cls-5" x="67.67" y="0">ORS</tspan></text><text class="cls-8" transform="translate(230.5 261.89)">C<tspan class="cls-9" x="9.58" y="0">A</tspan><tspan class="cls-10" x="18.47" y="0">T</tspan><tspan class="cls-5" x="25.77" y="0">A</tspan><tspan class="cls-11" x="35.74" y="0">L</tspan><tspan class="cls-12" x="42.57" y="0">Y</tspan><tspan class="cls-5" x="51.37" y="0">S</tspan><tspan class="cls-13" x="59.67" y="0">T</tspan><tspan class="cls-14" x="67.94" y="0">S</tspan></text><path class="cls-1" d="M175,154.23a153.79,153.79,0,0,1,9.52-52.56,154.11,154.11,0,1,0-2.15,303.4,154.8,154.8,0,0,1-8.76-52.61Z"/><path class="cls-1" d="M234.1,386.25a154.8,154.8,0,0,1-51.71,18.82A154.11,154.11,0,1,0,446.18,255.3a154.8,154.8,0,0,1-41.48,34.12Z"/><path class="cls-1" d="M234.21,120.23a153.81,153.81,0,0,0-49.67-18.57A153.79,153.79,0,0,0,175,154.23l-1.39,198.23a154.8,154.8,0,0,0,8.76,52.61,154.8,154.8,0,0,0,51.71-18.82l170.6-96.83a154.8,154.8,0,0,0,41.48-34.12A153.8,153.8,0,0,0,405.66,221ZM354.63,302.77A96.38,96.38,0,1,1,319.87,171,96.38,96.38,0,0,1,354.63,302.77Z"/><path class="cls-1" d="M234.21,120.23,405.66,221a153.8,153.8,0,0,1,40.53,34.31A154.11,154.11,0,1,0,184.54,101.67,153.81,153.81,0,0,1,234.21,120.23Z"/><path class="cls-15" d="M156.39,107.13a145.53,145.53,0,0,1,73.77,20.07L318.3,179a85.05,85.05,0,0,1,40,53.14,88.5,88.5,0,0,1-9.63,66.46A87.61,87.61,0,0,1,315.75,331l0,0,0,0-85.51,48.55-.05,0-.05,0a146.25,146.25,0,1,1-73.68-272.5m0-10a156.23,156.23,0,1,0,78.72,291.13l85.51-48.55a97.26,97.26,0,0,0,36.69-36.08c27.16-46.63,12.65-106.11-34-133.27l-88.11-51.78a155.53,155.53,0,0,0-78.83-21.45Z"/><path class="cls-16" d="M337.55,320.88a94.19,94.19,0,0,0,.54-133.2"/><text class="cls-17" transform="translate(302.43 93.54)">EXP<tspan class="cls-18" x="26.53" y="0">L</tspan><tspan x="33.99" y="0">ORERS</tspan></text></g></g></svg>