<svg xmlns="http://www.w3.org/2000/svg" viewBox="0 0 110.2 110.2"><defs><style>.cls-1{fill:#f05060;}</style></defs><title>icon_isd_1</title><g id="Layer_2" data-name="Layer 2"><g id="web"><path class="cls-1" d="M37.43,91.91,31,88.69a27.93,27.93,0,0,0,8.35-3.76,3.31,3.31,0,0,0,1.18-4,43.74,43.74,0,0,1-2.8-15.31A17.39,17.39,0,0,0,22.21,48.38a17.68,17.68,0,0,0-3.23,0A17.39,17.39,0,0,0,3.45,65.62,43.71,43.71,0,0,1,.65,80.93a3.31,3.31,0,0,0,1.18,4,27.93,27.93,0,0,0,8.35,3.76L3.75,91.91A6.75,6.75,0,0,0,0,98v10.6a1.61,1.61,0,0,0,3.23,0V98a3.54,3.54,0,0,1,2-3.19l5.1-2.55a12,12,0,0,0,20.6,0L36,94.79A3.54,3.54,0,0,1,38,98v10.6a1.61,1.61,0,0,0,3.23,0V98a6.75,6.75,0,0,0-3.75-6.07Zm-16.84,3a8.77,8.77,0,0,1-7.4-4.1l1-.52A5,5,0,0,0,17,85.75v-1.9a13.64,13.64,0,0,0,7.12,0v1.9A5,5,0,0,0,27,90.28l1,.52a8.72,8.72,0,0,1-7.4,4.09Zm6.86-8.65a1.83,1.83,0,0,1-.07-.49V82.51a13.71,13.71,0,0,0,5.12-5.13,10,10,0,0,0-1.95-12.23c-2.38-2.18-6.64-4.77-13.42-4.77a1.62,1.62,0,0,0-1.14.47l-3.45,3.45a1.61,1.61,0,0,0,2.28,2.28l3-3a15.82,15.82,0,0,1,10.58,3.91,6.75,6.75,0,0,1,1.32,8.25,10.46,10.46,0,0,1-19.57-5.16,1.61,1.61,0,0,0-3.23,0,13.7,13.7,0,0,0,6.9,11.88v3.24a1.87,1.87,0,0,1-.07.49,27.13,27.13,0,0,1-10.05-4,.1.1,0,0,1-.05-.12,47.18,47.18,0,0,0,3-16.54,14.14,14.14,0,0,1,12.59-14,14.4,14.4,0,0,1,2.64,0,14.14,14.14,0,0,1,12.59,14,47.18,47.18,0,0,0,3,16.54.1.1,0,0,1-.05.12,27.1,27.1,0,0,1-10.05,4Zm0,0"/><path class="cls-1" d="M8.52,100.07a1.61,1.61,0,0,0-1.61,1.61v6.9a1.61,1.61,0,0,0,3.23,0v-6.9a1.61,1.61,0,0,0-1.61-1.61Zm0,0"/><path class="cls-1" d="M32.67,100.07a1.61,1.61,0,0,0-1.61,1.61v6.9a1.61,1.61,0,0,0,3.23,0v-6.9a1.61,1.61,0,0,0-1.61-1.61Zm0,0"/><path class="cls-1" d="M95.68,62.38c-.23-.16-5.84-3.8-15-2A1.61,1.61,0,0,0,79.36,62v1.72a1.61,1.61,0,0,0,3.23,0v-.36a20.13,20.13,0,0,1,8,.37,12.58,12.58,0,0,1,3.35,1.34,1.61,1.61,0,0,0,1.78-2.69Zm0,0"/><path class="cls-1" d="M105.79,90.29l-8.2-3.08a1.84,1.84,0,0,1-1.19-1.72V81.35q.53-.42,1-.9a13.58,13.58,0,0,0,4.16-9.83V67.56l.46-.92a12,12,0,0,0,1.26-5.35V51.65A1.61,1.61,0,0,0,101.68,50h-18A11.26,11.26,0,0,0,72.46,61.28a12,12,0,0,0,1.26,5.35l.46.92v2.56a14.43,14.43,0,0,0,5.18,11.07v4.3a1.85,1.85,0,0,1-1.19,1.72L70,90.29a6.82,6.82,0,0,0-4.41,6.36v11.94a1.61,1.61,0,0,0,3.23,0V96.64a3.58,3.58,0,0,1,2.31-3.34l8.2-3.08a5,5,0,0,0,1.22-.67l5.74,4.3v14.72a1.61,1.61,0,0,0,3.23,0V93.86l5.74-4.3a5,5,0,0,0,1.22.67l8.2,3.08A3.58,3.58,0,0,1,107,96.64v11.94a1.61,1.61,0,0,0,3.23,0V96.64a6.82,6.82,0,0,0-4.41-6.36ZM87.88,91l-5.5-4.12a5,5,0,0,0,.21-1.43V83.2a13,13,0,0,0,4.87,1.11h.42a13.65,13.65,0,0,0,5.28-1.06v2.23a5,5,0,0,0,.21,1.43Zm7.29-12.9a10.39,10.39,0,0,1-7.61,2.95C82,80.92,77.42,76,77.42,70.12V67.18a1.61,1.61,0,0,0-.17-.72l-.63-1.27a8.79,8.79,0,0,1-.92-3.91,8,8,0,0,1,8-8h16.36v8a8.78,8.78,0,0,1-.92,3.91l-.63,1.27a1.62,1.62,0,0,0-.17.72v3.45a10.38,10.38,0,0,1-3.18,7.51Zm0,0"/><path class="cls-1" d="M75.8,98.34A1.61,1.61,0,0,0,74.19,100v8.63a1.61,1.61,0,0,0,3.23,0V100a1.61,1.61,0,0,0-1.61-1.61Zm0,0"/><path class="cls-1" d="M100,98.34A1.61,1.61,0,0,0,98.34,100v8.63a1.61,1.61,0,0,0,3.23,0V100A1.61,1.61,0,0,0,100,98.34Zm0,0"/><path class="cls-1" d="M79.25,6.9h-.11V6.79A6.8,6.8,0,0,0,72.35,0H24a6.8,6.8,0,0,0-6.79,6.79V34.4A6.8,6.8,0,0,0,24,41.19h7v.11a6.8,6.8,0,0,0,6.79,6.79h1.38l-.65,2.59a2.47,2.47,0,0,0,3.86,2.6l7.14-5.2h1.58l13.46,9a2.48,2.48,0,0,0,3.82-2.47l-1.09-6.51h11.9A6.8,6.8,0,0,0,86,41.3V13.69A6.8,6.8,0,0,0,79.25,6.9ZM40,44.86H37.85a3.57,3.57,0,0,1-3.56-3.56v-.11H41Zm2.18,4.6L44.59,40A1.61,1.61,0,0,0,43,38H24a3.57,3.57,0,0,1-3.56-3.56V6.79A3.57,3.57,0,0,1,24,3.23H72.35a3.57,3.57,0,0,1,3.56,3.56V34.4A3.57,3.57,0,0,1,72.35,38H58.55a1.61,1.61,0,0,0-.95.31Zm40.6-8.16a3.57,3.57,0,0,1-3.56,3.56H65.45a1.61,1.61,0,0,0-1.59,1.88L65,53.41l-11.85-7.9,6-4.33H72.35a6.8,6.8,0,0,0,6.79-6.79V10.13h.11a3.57,3.57,0,0,1,3.56,3.56Zm0,0"/><path class="cls-1" d="M36.12,10.35H30.94a1.61,1.61,0,0,0,0,3.23h5.17a1.61,1.61,0,1,0,0-3.23Zm0,0"/><path class="cls-1" d="M65.45,10.35H43a1.61,1.61,0,1,0,0,3.23H65.45a1.61,1.61,0,1,0,0-3.23Zm0,0"/><path class="cls-1" d="M65.45,19H30.94a1.61,1.61,0,0,0,0,3.23H65.45a1.61,1.61,0,1,0,0-3.23Zm0,0"/><path class="cls-1" d="M53.37,27.6H30.94a1.61,1.61,0,0,0,0,3.23H53.37a1.61,1.61,0,1,0,0-3.23Zm0,0"/><path class="cls-1" d="M65.45,27.6H60.28a1.61,1.61,0,1,0,0,3.23h5.17a1.61,1.61,0,1,0,0-3.23Zm0,0"/></g></g></svg>