<svg xmlns="http://www.w3.org/2000/svg" viewBox="0 0 154.41 106.09"><defs><style>.cls-1{fill:#ee5060;}</style></defs><title>icon_eye</title><g id="Layer_2" data-name="Layer 2"><g id="web"><path class="cls-1" d="M77.21,13.41A100.26,100.26,0,0,0,50.6,17l-.14,0-.16,0-.12,0a95,95,0,0,0-18.06,7.09,84.83,84.83,0,0,0-32,28.34.93.93,0,0,0,0,1,84.84,84.84,0,0,0,32,28.34A94.78,94.78,0,0,0,50.22,89l.14,0,.11,0,.08,0a100.36,100.36,0,0,0,26.66,3.59,100.31,100.31,0,0,0,26.65-3.59l.1,0,.09,0,.14,0a94.76,94.76,0,0,0,18.09-7.1,84.82,84.82,0,0,0,32-28.34.93.93,0,0,0,0-1,84.82,84.82,0,0,0-32-28.34h0a95,95,0,0,0-18.05-7.09l-.14,0-.16,0-.12,0A100.26,100.26,0,0,0,77.21,13.41Zm0,77.4a97.83,97.83,0,0,1-25.91-3.48l-.3-.08L50.74,87a43.08,43.08,0,0,1,0-68l.25-.19.3-.08a98.5,98.5,0,0,1,51.82,0l.3.08.25.19a43.08,43.08,0,0,1,0,68l-.25.19-.3.08A97.82,97.82,0,0,1,77.21,90.81Zm31.33-4.94,3.84-4.79a45,45,0,0,0,0-56.07l-3.84-4.79,5.68,2.35c15.63,6.45,28.61,16.69,37.53,29.59l.62.9-.62.9c-8.92,12.9-21.89,23.13-37.53,29.59Zm-62.66,0L40.2,83.53C24.56,77.07,11.59,66.84,2.67,53.94L2,53l.62-.9C11.59,39.25,24.56,29,40.2,22.56l5.68-2.35L42,25a45,45,0,0,0,0,56.07ZM26.39,92a.94.94,0,0,0-.83.5A.93.93,0,0,0,26,93.8a111.76,111.76,0,0,0,51.25,12.28,111.75,111.75,0,0,0,51.25-12.28.93.93,0,1,0-.86-1.66h0a109.91,109.91,0,0,1-50.39,12.07A109.91,109.91,0,0,1,26.82,92.15.93.93,0,0,0,26.39,92ZM77.2,0A111.77,111.77,0,0,0,26,12.28,100.82,100.82,0,0,0,.27,31.18a.93.93,0,0,0,0,1.32,1,1,0,0,0,1.32,0A98.92,98.92,0,0,1,26.82,13.94,109.9,109.9,0,0,1,77.21,1.87,111.46,111.46,0,0,1,120,10.4a.93.93,0,0,0,1.23-1.21.93.93,0,0,0-.5-.51A113.35,113.35,0,0,0,77.2,0ZM129,14.7a98.67,98.67,0,0,1,23.78,17.78,1,1,0,0,0,1.32,0,.93.93,0,0,0,0-1.32,100.63,100.63,0,0,0-24.23-18.12A.94.94,0,0,0,129,14.7ZM60.16,77.4H94.62V47.8h-29V41a11.61,11.61,0,0,1,11.6-11.6h.26A11.61,11.61,0,0,1,89.06,39.84h2.13A13.74,13.74,0,0,0,77.52,27.28h-.26A13.73,13.73,0,0,0,63.55,41v6.8H60.16ZM92.5,75.28H62.28V49.92H92.5Z"/></g></g></svg>