<svg xmlns="http://www.w3.org/2000/svg" viewBox="0 0 36 36"><defs><style>.cls-1{fill:#fff;}</style></defs><title>icon_tel</title><g id="Layer_2" data-name="Layer 2"><g id="web"><path class="cls-1" d="M18,0A18,18,0,1,0,36,18,18,18,0,0,0,18,0Zm4.78,12.06-11,6.85a.5.5,0,0,0-.22.58L13,24.25a.1.1,0,0,0,.19,0l.36-3.2a.5.5,0,0,1,.17-.32l9.35-8.26a.24.24,0,0,0-.29-.39Zm0,0M27,10,23.54,26.41a1.08,1.08,0,0,1-1.7.65l-5.19-3.81L14,25.95a.88.88,0,0,1-1.46-.35l-1.91-6.05L5.53,18a.73.73,0,0,1-.06-1.39L25.59,8.81A1,1,0,0,1,27,10Zm0,0"/></g></g></svg>