<svg xmlns="http://www.w3.org/2000/svg" viewBox="0 0 108.47 110.2"><defs><style>.cls-1{fill:#f05060;}</style></defs><title>icon_isd_2</title><g id="Layer_2" data-name="Layer 2"><g id="web"><path class="cls-1" d="M30.53,94,24,90.77a.11.11,0,0,1-.06-.1V87.39A11.92,11.92,0,0,0,29,79.19a13.65,13.65,0,0,0-3.63-17.78,6.94,6.94,0,0,0,.3-2c0-4.22-3.82-7.65-8.52-7.65s-8.52,3.43-8.52,7.65a6.94,6.94,0,0,0,.29,2A13.65,13.65,0,0,0,5.29,79.19a11.92,11.92,0,0,0,5.06,8.2v3.29a.11.11,0,0,1-.06.1L3.75,94A6.75,6.75,0,0,0,0,100.11v8.47a1.61,1.61,0,0,0,3.23,0v-8.47a3.54,3.54,0,0,1,2-3.19l5.39-2.7,4.94,4.69v9.66a1.61,1.61,0,0,0,3.23,0V98.93l4.94-4.69,5.39,2.7a3.54,3.54,0,0,1,2,3.19v8.47a1.61,1.61,0,0,0,3.23,0v-8.47A6.76,6.76,0,0,0,30.53,94ZM17.14,55c2.92,0,5.29,2,5.29,4.42,0,.1,0,.2,0,.3a13.67,13.67,0,0,0-10.54,0c0-.1,0-.2,0-.3C11.85,57,14.23,55,17.14,55Zm0,41-4-3.76a3.34,3.34,0,0,0,.39-1.58V89a12,12,0,0,0,7.12,0v1.72a3.34,3.34,0,0,0,.39,1.58Zm0-9.74a8.72,8.72,0,0,1-8.68-7.79,1.62,1.62,0,0,0-.23-.67,10.46,10.46,0,1,1,18.84-2.19C22.49,71,14.43,69.14,14,69.05a1.6,1.6,0,0,0-1.39.3,1.55,1.55,0,0,0-.57,1.25,4,4,0,0,1-1.25,2.33,1.61,1.61,0,0,0,2.28,2.28,7.82,7.82,0,0,0,1.75-2.61c2.72.81,8.35,2.84,10.88,6.42a8.72,8.72,0,0,1-8.6,7.23Zm0,0"/><path class="cls-1" d="M8.52,102.2a1.61,1.61,0,0,0-1.61,1.61v4.77a1.61,1.61,0,0,0,3.23,0v-4.77a1.61,1.61,0,0,0-1.61-1.61Zm0,0"/><path class="cls-1" d="M25.77,102.2a1.61,1.61,0,0,0-1.61,1.61v4.77a1.61,1.61,0,0,0,3.23,0v-4.77a1.61,1.61,0,0,0-1.61-1.61Zm0,0"/><path class="cls-1" d="M73.22,86.52,55,74.92V56.82a1.61,1.61,0,1,0-3.23,0V74.92L33.53,86.52a1.61,1.61,0,1,0,1.73,2.72L53.37,77.72,71.49,89.24a1.61,1.61,0,1,0,1.73-2.72Zm0,0"/><path class="cls-1" d="M66.76,35.38,62.59,33.3a28.41,28.41,0,0,0,5.5-1.82,3.33,3.33,0,0,0,1.72-4.22,62.34,62.34,0,0,1-2.75-13.67C66.51,5.84,60.63,0,53.37,0S40.24,5.84,39.69,13.58a62.34,62.34,0,0,1-2.75,13.67,3.33,3.33,0,0,0,1.72,4.22,28.44,28.44,0,0,0,5.5,1.82L40,35.38a6.75,6.75,0,0,0-3.75,6.07v8.47a1.61,1.61,0,1,0,3.23,0V41.45a3.54,3.54,0,0,1,2-3.19l5.39-2.7,1.87,1.78a6.79,6.79,0,0,0,9.36,0l1.87-1.78,5.39,2.7a3.54,3.54,0,0,1,2,3.19v8.47a1.61,1.61,0,1,0,3.23,0V41.45a6.75,6.75,0,0,0-3.75-6.07ZM46.58,30.49a26.76,26.76,0,0,1-6.58-2c-.09,0-.05-.15,0-.17a47,47,0,0,0,1.79-6.68,12,12,0,0,0,4.84,7ZM55.83,35a3.56,3.56,0,0,1-4.91,0l-1.5-1.43A3.35,3.35,0,0,0,49.81,32V30.29a12,12,0,0,0,7.12,0V32a3.34,3.34,0,0,0,.39,1.58ZM53.37,27.6a8.75,8.75,0,0,1-8.74-8.74A1.61,1.61,0,0,0,43,17.25a1.59,1.59,0,0,0-.52.09c.2-1.36.34-2.58.4-3.53a12,12,0,0,1,3.26-7.52,10,10,0,0,1,14.41,0,12,12,0,0,1,3.26,7.52c.07,1,.23,2.35.45,3.83A14.36,14.36,0,0,0,56,11.32a20.22,20.22,0,0,0-6.14-1,1.61,1.61,0,0,0-1.12.49l-2.91,3a1.61,1.61,0,1,0,2.32,2.24l2.42-2.51a17.77,17.77,0,0,1,4.52.83A10.82,10.82,0,0,1,62,20.22a8.72,8.72,0,0,1-8.63,7.38Zm6.79,1.12a11.92,11.92,0,0,0,4.84-7,47.19,47.19,0,0,0,1.79,6.68s0,.13,0,.17a26.8,26.8,0,0,1-6.58,2Zm0,0"/><path class="cls-1" d="M44.75,43.54a1.61,1.61,0,0,0-1.61,1.61v4.77a1.61,1.61,0,1,0,3.23,0V45.15a1.61,1.61,0,0,0-1.61-1.61Zm0,0"/><path class="cls-1" d="M62,43.54a1.61,1.61,0,0,0-1.61,1.61v4.77a1.61,1.61,0,1,0,3.23,0V45.15A1.61,1.61,0,0,0,62,43.54Zm0,0"/><path class="cls-1" d="M95.5,69.18c-3.75-1.87-10.78-1.9-11.07-1.9a1.61,1.61,0,0,0,0,3.23c1.82,0,7.09.28,9.63,1.56a1.61,1.61,0,0,0,1.44-2.89Zm0,0"/><path class="cls-1" d="M103.55,92.16l-5.82-1.66a1.84,1.84,0,0,1-1.33-1.77V87.38a12.27,12.27,0,0,0,1.54-1.27,11.87,11.87,0,0,0,3.63-8.59V74.46l.64-1.29a10.29,10.29,0,0,0,1.08-4.58V60.28a1.61,1.61,0,0,0-1.61-1.61H86.15A10.25,10.25,0,0,0,75.91,68.9V69a8.56,8.56,0,0,0,.9,3.81l.83,1.65v2.64a12.6,12.6,0,0,0,5.18,10.18v1.45a1.84,1.84,0,0,1-1.33,1.77l-5.82,1.66a6.82,6.82,0,0,0-4.92,6.53v9.9a1.61,1.61,0,0,0,3.23,0v-9.9a3.58,3.58,0,0,1,2.58-3.43l5.82-1.66a5.06,5.06,0,0,0,1.4-.65l1,1a6.8,6.8,0,0,0,9.6,0l1-1a5,5,0,0,0,1.4.65l5.82,1.66a3.58,3.58,0,0,1,2.58,3.42v9.9a1.61,1.61,0,0,0,3.23,0v-9.9a6.82,6.82,0,0,0-4.92-6.53Zm-11.42-.45a3.57,3.57,0,0,1-5,0l-1.32-1.32A5,5,0,0,0,86,88.92a11.32,11.32,0,0,0,3.2.57h.37A12,12,0,0,0,93.18,89a5,5,0,0,0,.27,1.43Zm-2.79-5.44a9,9,0,0,1-8.47-9.17v-3a1.61,1.61,0,0,0-.17-.72l-1-2A5.32,5.32,0,0,1,79.14,69v-.1a7,7,0,0,1,7-7h13.91v6.7a7,7,0,0,1-.74,3.14l-.81,1.63a1.62,1.62,0,0,0-.17.72v3.45a8.74,8.74,0,0,1-9,8.73Zm0,0"/><path class="cls-1" d="M79.25,100.07a1.61,1.61,0,0,0-1.61,1.61v6.9a1.61,1.61,0,0,0,3.23,0v-6.9a1.61,1.61,0,0,0-1.61-1.61Zm0,0"/><path class="cls-1" d="M100,100.07a1.61,1.61,0,0,0-1.61,1.61v6.9a1.61,1.61,0,0,0,3.23,0v-6.9a1.61,1.61,0,0,0-1.61-1.61Zm0,0"/></g></g></svg>