<svg xmlns="http://www.w3.org/2000/svg" viewBox="0 0 110.2 98.12"><defs><style>.cls-1{fill:#f05060;}</style></defs><title>icon_isd_5</title><g id="Layer_2" data-name="Layer 2"><g id="web"><path class="cls-1" d="M84.43,0a15.41,15.41,0,0,0-6.79,29.25V34.4A3.34,3.34,0,0,0,81,37.73h1.84v.11a1.61,1.61,0,1,0,3.23,0v-.11h1.84a3.34,3.34,0,0,0,3.34-3.34V29.25A15.41,15.41,0,0,0,84.43,0ZM88,34.4a.11.11,0,0,1-.11.11H81a.11.11,0,0,1-.11-.11v-4a15.35,15.35,0,0,0,7.12,0ZM81.77,18.76h5.31L84.83,27.6H84ZM88.32,27l2.85-11.15A1.61,1.61,0,1,0,88,15l-.13.51h-7L80.82,15a1.61,1.61,0,0,0-3.13.8L80.54,27a12.19,12.19,0,1,1,7.79,0Zm0,0"/><path class="cls-1" d="M56.81,77.69,42.28,71.27a1.84,1.84,0,0,1-1.09-1.68V64A19,19,0,0,0,49,53.74a24,24,0,0,0-6.2-36.82,9,9,0,0,0,.13-1.51c0-5.65-5.37-10.24-12-10.24S19,9.77,19,15.42a8.82,8.82,0,0,0,.13,1.5,24,24,0,0,0-6.2,36.82A19,19,0,0,0,20.7,64v5.55a1.84,1.84,0,0,1-1.09,1.68L5.07,77.69A8.52,8.52,0,0,0,0,85.47v11a1.61,1.61,0,1,0,3.23,0v-11a5.29,5.29,0,0,1,3.15-4.84l9.23-4.08a17.15,17.15,0,0,0,30.67,0l9.23,4.07a5.29,5.29,0,0,1,3.15,4.84v11a1.61,1.61,0,1,0,3.23,0v-11a8.52,8.52,0,0,0-5.07-7.79ZM30.94,8.4c4.82,0,8.74,3.15,8.74,7v0a24.06,24.06,0,0,0-17.47,0v0c0-3.87,3.92-7,8.74-7ZM15.31,48.2V46.85a1.76,1.76,0,0,1,.92-1.52,12.77,12.77,0,0,0,5.9-7,1.61,1.61,0,1,0-3.06-1,9.6,9.6,0,0,1-4.45,5.19,5,5,0,0,0-2.53,4.12,20.82,20.82,0,1,1,37.73,0V45.17a6.73,6.73,0,0,0-2.3-5.09c-3.24-2.82-10.59-7.74-23.31-9a1.61,1.61,0,0,0-.32,3.21c11.84,1.18,18.56,5.67,21.52,8.24a3.5,3.5,0,0,1,1.19,2.66v3a15.64,15.64,0,1,1-31.28,0ZM30.94,82.82a13.9,13.9,0,0,1-12.38-7.56l2.35-1a5.07,5.07,0,0,0,3-4.63V65.71a18.86,18.86,0,0,0,14,0v3.87a5.07,5.07,0,0,0,3,4.63l2.35,1a13.86,13.86,0,0,1-12.38,7.56Zm0,0"/><path class="cls-1" d="M13.69,88a1.61,1.61,0,0,0-1.61,1.61v6.9a1.61,1.61,0,1,0,3.23,0v-6.9A1.61,1.61,0,0,0,13.69,88Zm0,0"/><path class="cls-1" d="M48.2,88a1.61,1.61,0,0,0-1.61,1.61v6.9a1.61,1.61,0,1,0,3.23,0v-6.9A1.61,1.61,0,0,0,48.2,88Zm0,0"/><path class="cls-1" d="M103.41,5.18a1.61,1.61,0,0,0,0,3.23A3.57,3.57,0,0,1,107,12V39.57a3.57,3.57,0,0,1-3.56,3.56H86.15a1.61,1.61,0,0,0-.95.31L69.82,54.63l2.37-9.49a1.61,1.61,0,0,0-1.57-2H65.45a3.57,3.57,0,0,1-3.56-3.56V12A3.57,3.57,0,0,1,65.45,8.4a1.61,1.61,0,1,0,0-3.23A6.8,6.8,0,0,0,58.66,12V39.57a6.8,6.8,0,0,0,6.79,6.79h3.11l-2.37,9.49A2.47,2.47,0,0,0,70,58.46l16.63-12.1h16.73a6.8,6.8,0,0,0,6.79-6.79V12a6.8,6.8,0,0,0-6.79-6.79Zm0,0"/></g></g></svg>