<svg xmlns="http://www.w3.org/2000/svg" viewBox="0 0 98.74 94.03"><defs><style>.cls-1{fill:#ee5060;}</style></defs><title>icon_star</title><g id="Layer_2" data-name="Layer 2"><g id="web"><path class="cls-1" d="M97.74,35,65,30.28,50.42.65a1.17,1.17,0,0,0-2.1,0L33.7,30.28,1,35a1.17,1.17,0,0,0-.95.8A1.18,1.18,0,0,0,.35,37L24,60.09,18.43,92.66a1.16,1.16,0,0,0,.46,1.14,1.19,1.19,0,0,0,1.23.09L49.37,78.52,78.61,93.89a1.15,1.15,0,0,0,1.23-.09,1.17,1.17,0,0,0,.47-1.15L74.73,60.09l.23-.23L98.39,37a1.17,1.17,0,0,0-.65-2ZM72.65,58.85a1.17,1.17,0,0,0-.34,1l5.29,30.83L49.92,76.16a1.17,1.17,0,0,0-1.09,0L21.13,90.71l5.29-30.83a1.16,1.16,0,0,0-.33-1L3.68,37l31-4.5a1.17,1.17,0,0,0,.88-.64L49.37,3.82,63.22,31.87a1.17,1.17,0,0,0,.88.64l31,4.5Z"/></g></g></svg>