<svg xmlns="http://www.w3.org/2000/svg" viewBox="0 0 82.98 108.63"><defs><style>.cls-1{fill:#ee5060;}</style></defs><title>icon_shild</title><g id="Layer_2" data-name="Layer 2"><g id="web"><path class="cls-1" d="M41.49,0a1.11,1.11,0,0,0-.87.37C40.5.52,28.28,14.64,1.13,14.64A1.13,1.13,0,0,0,0,15.77v35c0,18.93,8.5,36.91,22.75,48.1a55.25,55.25,0,0,0,18.42,9.7,1.11,1.11,0,0,0,.64,0,55.33,55.33,0,0,0,18.42-9.7C74.48,87.69,83,69.71,83,50.79v-35a1.13,1.13,0,0,0-1.13-1.12C54.91,14.65,42.86,1,42.36.38A1.11,1.11,0,0,0,41.49,0Zm0,106.33-.21-.07a53.2,53.2,0,0,1-17.14-9.15C10.43,86.35,2.25,69,2.25,50.79V16.89h.69C25,16.39,36.89,7.17,41,3.23l.49-.47.49.47C46.09,7.17,58,16.39,80,16.88h.69V50.79c0,18.24-8.18,35.56-21.89,46.33a53.23,53.23,0,0,1-17.14,9.15ZM12,25a1.13,1.13,0,0,0-1,1.12V50.79c0,15.58,6.93,30.32,18.54,39.45a45.82,45.82,0,0,0,11.53,6.69,1.14,1.14,0,0,0,.82,0,45.86,45.86,0,0,0,11.53-6.69C65,81.11,72,66.36,72,50.79V26.1A1.13,1.13,0,0,0,71,25,65.91,65.91,0,0,1,42.12,14.53a1.12,1.12,0,0,0-1.26,0A65.91,65.91,0,0,1,12,25Zm29.5,69.68-.27-.11a43.92,43.92,0,0,1-10.28-6.09c-11.07-8.7-17.68-22.79-17.68-37.68V27.09l.6-.09A68.46,68.46,0,0,0,41.1,17.07l.39-.25.39.25A68.47,68.47,0,0,0,69.11,27l.6.09v23.7c0,14.89-6.61,29-17.68,37.68a43.92,43.92,0,0,1-10.28,6.09Z"/></g></g></svg>