<svg xmlns="http://www.w3.org/2000/svg" viewBox="0 0 112 112"><defs><style>.cls-1{fill:#ee5060;}</style></defs><title>icon_graph</title><g id="Layer_2" data-name="Layer 2"><g id="web"><path class="cls-1" d="M8.28,61.54h0ZM99,15.08l-.34-.24-26.89,27,.24.34a8.27,8.27,0,0,1-6.83,13v.5l-.07-.5a8.27,8.27,0,0,1-6.76-12.94l.24-.34L46.33,29.55l-.34.24a8.24,8.24,0,0,1-9.33,0l-.34-.24L14.88,51l.23.34a8.22,8.22,0,0,1,1.45,4.74,8.28,8.28,0,1,1-8.21-8.35h0A8.23,8.23,0,0,1,13,49.17l.34.24L34.72,28l-.24-.34A8.22,8.22,0,0,1,33,22.89a8.32,8.32,0,0,1,8.35-8.21h0a8.27,8.27,0,0,1,6.76,12.95l-.24.34L60.17,40.23l.34-.24a8.24,8.24,0,0,1,9.33,0l.34.23,26.9-27-.23-.34a8.22,8.22,0,0,1-1.41-4.69A8.32,8.32,0,0,1,103.79,0,8.28,8.28,0,0,1,112,8.35a8.32,8.32,0,0,1-8.35,8.21A8.21,8.21,0,0,1,99,15.08ZM14.32,56a6,6,0,1,0-6.08,6h0A6.05,6.05,0,0,0,14.32,56Zm33-33a6,6,0,1,0-6.08,6h0A6.05,6.05,0,0,0,47.36,23ZM71.22,46.87a6,6,0,1,0-6,6A6,6,0,0,0,71.22,46.87Zm28.2-34.36a6,6,0,1,0,4.35-10.27h0a6,6,0,0,0-4.3,10.27ZM18.95,76.35V112H0V76.35ZM16.7,78.6H2.24v31.16H16.7ZM112,33.4V112H93.05V33.4Zm-2.24,2.24H95.3v74.11h14.46ZM50,64.42V112H31V64.42Zm-2.24,2.24H33.26v43.09H47.72ZM81,66.81V112H62V66.81Zm-2.24,2.24H64.28v40.7H78.74Z"/></g></g></svg>