<svg xmlns="http://www.w3.org/2000/svg" viewBox="0 0 70.51 110.2"><defs><style>.cls-1{fill:#f05060;}</style></defs><title>icon_isd_3</title><g id="Layer_2" data-name="Layer 2"><g id="web"><path class="cls-1" d="M67.06,90v-2.1A5.07,5.07,0,0,0,62,82.82H60.18c.22-9.36,2.31-15.42,4.34-21.29,2.1-6.07,4.27-12.35,4.27-21.95,0-9.3-2.95-16.84-8.76-22.39A36.39,36.39,0,0,0,44.41,8.8C43.31,4.09,40.73,1.94,38.73,1A9.18,9.18,0,0,0,34.26,0a1.61,1.61,0,0,0-1.48,1.61V7c-2.09-.11-3.44-.05-3.64,0a1.61,1.61,0,0,0,.15,3.23c.18,0,18-.69,28.5,9.38,5.15,4.92,7.76,11.67,7.76,20.06,0,9.06-2,14.81-4.09,20.89S57.17,72.92,57,82.82H19.8a12.3,12.3,0,0,1-1-5.29c0-4.25,2.61-14,20.23-31.63a1.61,1.61,0,0,0-1.53-2.71A15.56,15.56,0,0,1,26.9,41.25a5.11,5.11,0,0,0-5.73.56c-2.55,2-8,5.11-16.45,3.33L3.37,38.38,20,21.74a1.62,1.62,0,0,0,.47-1.14V18.47a1.83,1.83,0,0,1,1.66-1.83,53.84,53.84,0,0,1,20.09,1.91,1.61,1.61,0,1,0,1-3.08,57.16,57.16,0,0,0-21.36-2,5,5,0,0,0-4.59,5v1.47L.47,36.71A1.62,1.62,0,0,0,0,38.17l1.72,8.63A1.62,1.62,0,0,0,2.95,48c10.34,2.59,17.12-1.22,20.24-3.71a1.93,1.93,0,0,1,2.12-.27,19.58,19.58,0,0,0,8.47,2.55c-15,15.74-18.26,25.46-18.25,30.93a16.74,16.74,0,0,0,.81,5.35,5.07,5.07,0,0,0-4.26,5V90a5.07,5.07,0,0,0-3.45,4.8v10.35a5.07,5.07,0,0,0,5.06,5.07H65.45a5.07,5.07,0,0,0,5.06-5.07V94.78A5.07,5.07,0,0,0,67.06,90ZM36,7.22V3.4a6.34,6.34,0,0,1,1.31.47,7.07,7.07,0,0,1,3.47,4.08c-1.72-.34-3.33-.57-4.78-.73ZM65.45,107H13.69a1.84,1.84,0,0,1-1.84-1.84V94.78a1.84,1.84,0,0,1,1.84-1.84H55.1a1.61,1.61,0,1,0,0-3.23H15.3V87.88A1.84,1.84,0,0,1,17.14,86H62a1.84,1.84,0,0,1,1.84,1.84v1.84H62a1.61,1.61,0,1,0,0,3.23h3.45a1.84,1.84,0,0,1,1.84,1.84v10.35A1.84,1.84,0,0,1,65.45,107Zm0,0"/><path class="cls-1" d="M52.65,19.9c-.9-.6-1.85-1.17-2.83-1.69a1.61,1.61,0,1,0-1.52,2.85c.89.47,1.75,1,2.56,1.53a1.61,1.61,0,1,0,1.79-2.69Zm0,0"/><path class="cls-1" d="M25.77,20.71a1.61,1.61,0,0,0-1.61,1.61V24a1.61,1.61,0,1,0,3.23,0V22.32a1.61,1.61,0,0,0-1.61-1.61Zm0,0"/></g></g></svg>