<svg xmlns="http://www.w3.org/2000/svg" viewBox="0 0 89.5 110.2"><defs><style>.cls-1{fill:#f05060;}</style></defs><title>icon_isd_4</title><g id="Layer_2" data-name="Layer 2"><g id="web"><path class="cls-1" d="M87.24,14.79a11.06,11.06,0,0,0-8.9-4.44H74.54l1-7.12h2a1.61,1.61,0,0,0,0-3.23H12a1.61,1.61,0,0,0,0,3.23h2L15,10.35H11.16A11.15,11.15,0,0,0,.44,24.57,18.23,18.23,0,0,0,17.89,37.73h1.52A27.23,27.23,0,0,0,39.68,54.51v6.42a6.77,6.77,0,0,0,0,9v9.4h-.11a3.34,3.34,0,0,0-3.34,3.34v3.56H32.29a3.34,3.34,0,0,0-3.24,2.53l-4.85,19.4a1.62,1.62,0,0,0,1.57,2h38a1.62,1.62,0,0,0,1.57-2L60.44,88.8a3.34,3.34,0,0,0-3.24-2.53H53.26V82.7a3.34,3.34,0,0,0-3.34-3.34h-.11V70a6.77,6.77,0,0,0,0-9V54.51A27.23,27.23,0,0,0,70.09,37.73h1.52A18.23,18.23,0,0,0,89.06,24.57a11.06,11.06,0,0,0-1.82-9.78ZM17.89,34.51A15,15,0,0,1,3.54,23.68a7.93,7.93,0,0,1,7.62-10.1h4.22l2.37,17.77a27.23,27.23,0,0,0,.61,3.15Zm32,48.09a.11.11,0,0,1,.11.11s0,5,0,5.16h0a1.61,1.61,0,0,0,1.61,1.61H57.2a.11.11,0,0,1,.11.08L61.66,107H27.84l4.35-17.39a.11.11,0,0,1,.11-.08H44.75a1.61,1.61,0,1,0,0-3.23H39.46V82.7a.11.11,0,0,1,.11-.11Zm-5.18-20.7a3.56,3.56,0,1,1-3.56,3.56,3.57,3.57,0,0,1,3.56-3.56Zm-1.84-3v-4q.91.06,1.84.06t1.84-.06v4a6.76,6.76,0,0,0-3.67,0ZM46.58,72v7.38H42.91V72a6.75,6.75,0,0,0,3.67,0Zm22-41.06a24,24,0,0,1-47.59,0L17.26,3.23h55ZM86,23.68A15,15,0,0,1,71.61,34.51h-.48a27.29,27.29,0,0,0,.61-3.15l2.37-17.77h4.22A7.93,7.93,0,0,1,86,23.68Zm0,0"/><path class="cls-1" d="M51.65,93.17H37.85a1.61,1.61,0,0,0,0,3.23h13.8a1.61,1.61,0,0,0,0-3.23Zm0,0"/><path class="cls-1" d="M48.2,100.07H41.3a1.61,1.61,0,1,0,0,3.23h6.9a1.61,1.61,0,1,0,0-3.23Zm0,0"/><path class="cls-1" d="M48.58,13.57l-1-2a3.16,3.16,0,0,0-5.66,0l-3.25,6.58L31.4,19.18a3.15,3.15,0,0,0-1.75,5.38l5.87,5.72A1.61,1.61,0,1,0,37.77,28L32,22.35l8-1.16a1.61,1.61,0,0,0,1.21-.88l3.56-7.21.94,1.9a1.61,1.61,0,0,0,2.9-1.43Zm0,0"/><path class="cls-1" d="M60.64,21.32a3.14,3.14,0,0,0-2.55-2.15L50,18a1.61,1.61,0,0,0-.46,3.19l8,1.16L51.72,28a1.62,1.62,0,0,0-.46,1.43l1.36,7.93L45.5,33.58a1.61,1.61,0,0,0-1.5,0l-7.12,3.74.31-1.8A1.61,1.61,0,1,0,34,35l-.33,1.95a3.15,3.15,0,0,0,4.58,3.33l6.5-3.42,6.5,3.42a3.16,3.16,0,0,0,4.58-3.33l-1.24-7.24,5.26-5.12a3.14,3.14,0,0,0,.8-3.23Zm0,0"/></g></g></svg>