<svg xmlns="http://www.w3.org/2000/svg" viewBox="0 0 90 11.9"><defs><style>.cls-1{fill:#500050;}</style></defs><title>logo_text</title><g id="Layer_2" data-name="Layer 2"><g id="mobile"><path class="cls-1" d="M77.1,9.89,75.31,8.1a3,3,0,1,1,0-4.31l2.05-2.05a5.95,5.95,0,1,0-.65,9Z"/><path class="cls-1" d="M87.05,11.61H90L84.7.29H82.53l-5.3,11.32h2.95l1-2.07h5ZM82.23,7.22l1.42-3,1.39,3Z"/><path class="cls-1" d="M22.19,5.95A5.95,5.95,0,1,1,16.24,0,5.95,5.95,0,0,1,22.19,5.95Zm-5.95-3a3,3,0,1,0,3,3A3,3,0,0,0,16.24,2.9Z"/><path class="cls-1" d="M3.79,8.1A3,3,0,0,1,8.1,3.79l2.05-2.05a5.95,5.95,0,1,0,0,8.41L8.1,8.1A3,3,0,0,1,3.79,8.1Z"/><polygon class="cls-1" points="58.03 7.23 53.1 0.29 50.2 0.29 50.2 11.61 53.1 11.61 53.1 4.57 58.03 11.61 60.94 11.61 60.94 0.29 58.03 0.29 58.03 7.23"/><rect class="cls-1" x="62.84" y="0.29" width="2.9" height="11.32"/><polygon class="cls-1" points="33.04 0.29 29.71 6.03 26.41 0.33 26.41 0.29 26.38 0.29 23.5 0.29 23.5 0.29 23.5 0.3 23.5 11.61 26.41 11.61 26.41 4.6 28.99 9.29 30.43 9.29 33.07 4.55 33.07 11.61 35.98 11.61 35.98 0.29 33.07 0.29 33.04 0.29"/><path class="cls-1" d="M37.72,6.53a5.37,5.37,0,1,0,10.74,0V.29h-2.9V6.53a2.47,2.47,0,1,1-4.93,0V.29h-2.9Z"/></g></g></svg>