<svg xmlns="http://www.w3.org/2000/svg" viewBox="0 0 134.18 18.46"><defs><style>.cls-1{fill:#ee5060;}</style></defs><title>logo_footer</title><g id="Layer_2" data-name="Layer 2"><g id="Layer_1-2" data-name="Layer 1"><path class="cls-1" d="M114.95,15.4l-2.67-2.69a4.52,4.52,0,0,1-6.43,0,4.61,4.61,0,0,1,0-6.48,4.52,4.52,0,0,1,6.43,0l3.06-3.09a8.82,8.82,0,0,0-12.55,0,9,9,0,0,0,0,12.65,8.82,8.82,0,0,0,11.57.85Z"/><path class="cls-1" d="M129.62,18h4.56l-7.9-17h-3.22l-7.9,17h4.56l1.39-3h7.14Zm-7-7,2.12-4.56L126.8,11Z"/><path class="cls-1" d="M33.19,9a9,9,0,1,1-9-9A9,9,0,0,1,33.19,9Zm-8.5-4a4.5,4.5,0,1,0,4.5,4.5A4.5,4.5,0,0,0,24.69,5Z"/><path class="cls-1" d="M5.66,12.72a4.61,4.61,0,0,1,0-6.48,4.52,4.52,0,0,1,6.43,0l3.06-3.09a8.82,8.82,0,0,0-12.55,0,9,9,0,0,0,0,12.65,8.82,8.82,0,0,0,12.55,0l-3.06-3.09A4.52,4.52,0,0,1,5.66,12.72Z"/><polygon class="cls-1" points="87.19 11.42 80.39 1 75.19 1 75.19 18 79.19 18 79.19 7.43 85.99 18 91.19 18 91.19 1 87.19 1 87.19 11.42"/><rect class="cls-1" x="94.19" y="1" width="4" height="17"/><polygon class="cls-1" points="48.89 1 44.02 9.63 39.19 1.06 39.19 1 39.15 1 35.19 1 35.18 1 35.19 1.01 35.19 18 39.19 18 39.19 7.45 43.22 15 45.36 15 49.19 7.37 49.19 18 53.19 18 53.19 1 48.94 1 48.89 1"/><path class="cls-1" d="M56.19,10.38a8,8,0,1,0,16,0V1h-4v9.38a3.51,3.51,0,1,1-7,0V1h-5Z"/></g></g></svg>