<svg xmlns="http://www.w3.org/2000/svg" viewBox="0 0 377.1 62.86"><defs><style>.cls-1{fill:#581751;}.cls-2{fill:#e75166;}</style></defs><title>logo_rcu</title><g id="Layer_2" data-name="Layer 2"><g id="web"><path class="cls-1" d="M217.15,26.51l-3.3-6.6h-2.59v6.6h-5.07V6.85H216c4.36,0,6.84,2.89,6.84,6.54a6,6,0,0,1-3.92,5.89l4,7.22Zm.56-13.14a2.2,2.2,0,0,0-2.45-2.09h-4v4.21h4A2.18,2.18,0,0,0,217.71,13.36Z"/><path class="cls-1" d="M226.26,26.51V6.85h14.41v4.42h-9.34v3.07h9.14v4.42h-9.14v3.33h9.34v4.42Z"/><path class="cls-1" d="M244.21,26.51V6.85h5.07V22.08h7.9v4.42Z"/><path class="cls-1" d="M260.39,26.51V6.85H274.8v4.42h-9.34v3.07h9.14v4.42h-9.14v3.33h9.34v4.42Z"/><path class="cls-1" d="M283.64,26.51l-7.4-19.66H282L286.82,21l4.86-14.18h5.75L290,26.51Z"/><path class="cls-1" d="M311.52,26.51l-1-2.83H302.8l-1,2.83h-5.75l7.4-19.66h6.37l7.43,19.66Zm-4.86-14.65-2.5,7.4h5Z"/><path class="cls-1" d="M332.68,26.51l-8.31-11.38V26.51H319.3V6.85h5.22l8,10.82V6.85h5.1V26.51Z"/><path class="cls-1" d="M340.7,16.69c0-6.07,4.6-10.17,10.64-10.17a9.07,9.07,0,0,1,8.58,5.28l-4.36,2.06A4.72,4.72,0,0,0,351.34,11a5.43,5.43,0,0,0-5.48,5.69,5.43,5.43,0,0,0,5.48,5.69,4.72,4.72,0,0,0,4.21-2.86l4.36,2.06a9.13,9.13,0,0,1-8.58,5.28C345.3,26.86,340.7,22.73,340.7,16.69Z"/><path class="cls-1" d="M362.69,26.51V6.85H377.1v4.42h-9.34v3.07h9.14v4.42h-9.14v3.33h9.34v4.42Z"/><path class="cls-1" d="M205.18,46.17c0-6.07,4.6-10.17,10.64-10.17a9.07,9.07,0,0,1,8.58,5.28L220,43.34a4.72,4.72,0,0,0-4.21-2.86,5.43,5.43,0,0,0-5.48,5.69,5.43,5.43,0,0,0,5.48,5.69A4.72,4.72,0,0,0,220,49l4.36,2.06a9.13,9.13,0,0,1-8.58,5.28C209.78,56.33,205.18,52.21,205.18,46.17Z"/><path class="cls-1" d="M240.4,56v-7.9h-8.16V56h-5.07V36.32h5.07v7.34h8.16V36.32h5.07V56Z"/><path class="cls-1" d="M249.6,56V36.32H264v4.42h-9.34v3.07h9.14v4.42h-9.14v3.33H264V56Z"/><path class="cls-1" d="M266.55,46.17c0-6.07,4.6-10.17,10.64-10.17a9.07,9.07,0,0,1,8.58,5.28l-4.36,2.06a4.72,4.72,0,0,0-4.21-2.86,5.43,5.43,0,0,0-5.48,5.69,5.43,5.43,0,0,0,5.48,5.69A4.72,4.72,0,0,0,281.4,49l4.36,2.06a9.13,9.13,0,0,1-8.58,5.28C271.14,56.33,266.55,52.21,266.55,46.17Z"/><path class="cls-1" d="M300.09,56l-5.16-7.4-1.33,1.65V56h-5.07V36.32h5.07V44.4l6-8.08h6.25l-7.63,9.2,8,10.46Z"/><path class="cls-1" d="M305.45,47.82V44h7.07v3.8Z"/><path class="cls-1" d="M315.77,48V36.32h5.16V47.85c0,2.33,1.39,4,4.16,4a3.76,3.76,0,0,0,4.13-4V36.32h5.13V48c0,4.89-3,8.34-9.25,8.34S315.77,52.86,315.77,48Z"/><path class="cls-1" d="M338.46,56V36.32h9.84c4.42,0,6.84,3,6.84,6.54s-2.42,6.51-6.84,6.51h-4.77V56ZM350,42.86a2.11,2.11,0,0,0-2.36-2.12h-4.1V45h4.1A2.1,2.1,0,0,0,350,42.86Z"/><path class="cls-1" d="M33.59,61.23,23.48,41H15.53V61.23H0V1H30.16c13.37,0,21,8.85,21,20,0,10.48-6.41,16.07-12,18.06L51.38,61.23ZM35.31,21c0-4.06-3.43-6.41-7.5-6.41H15.53V27.45H27.81C31.88,27.45,35.31,25.19,35.31,21Z"/><path class="cls-1" d="M58.43,31.16C58.43,12.55,72.52,0,91,0c14.54,0,22.31,8.22,26.28,16.16l-13.37,6.32A14.46,14.46,0,0,0,91,13.73c-9.84,0-16.8,7.59-16.8,17.43s7,17.43,16.8,17.43a14.47,14.47,0,0,0,12.91-8.76l13.37,6.32C113.43,53.91,105.57,62.31,91,62.31,72.52,62.31,58.43,49.67,58.43,31.16Z"/><path class="cls-1" d="M126.31,34.25a28.6,28.6,0,1,0,57.2,0V1H168V34.25a13.14,13.14,0,0,1-26.28,0V1H126.31Z"/><path class="cls-2" d="M155,62.86a28.42,28.42,0,0,1-20.23-8.38l10.9-10.9a13.2,13.2,0,0,0,18.67,0l10.9,10.9A28.42,28.42,0,0,1,155,62.86Z"/></g></g></svg>