<svg xmlns="http://www.w3.org/2000/svg" viewBox="0 0 90 38.98"><defs><style>.cls-1{fill:#ee5060;}.cls-2{fill:#500050;}</style></defs><title>logo_1</title><g id="Layer_2" data-name="Layer 2"><g id="mobile"><path class="cls-1" d="M26.67,9.17a25.93,25.93,0,0,0,36.67,0L54.17,0A13,13,0,0,1,35.83,0Z"/><path class="cls-2" d="M77.1,37l-1.79-1.79a3,3,0,1,1,0-4.31l2.05-2.05a5.95,5.95,0,1,0-.65,9Z"/><path class="cls-2" d="M87.05,38.69H90L84.7,27.37H82.53l-5.3,11.32h2.95l1-2.07h5ZM82.23,34.3l1.42-3,1.39,3Z"/><path class="cls-2" d="M22.19,33a5.95,5.95,0,1,1-5.95-5.95A5.95,5.95,0,0,1,22.19,33Zm-5.95-3a3,3,0,1,0,3,3A3,3,0,0,0,16.24,30Z"/><path class="cls-2" d="M3.79,35.19A3,3,0,0,1,8.1,30.88l2.05-2.05a5.95,5.95,0,1,0,0,8.41L8.1,35.19A3,3,0,0,1,3.79,35.19Z"/><polygon class="cls-2" points="58.03 34.31 53.1 27.37 50.2 27.37 50.2 38.69 53.1 38.69 53.1 31.66 58.03 38.69 60.94 38.69 60.94 27.37 58.03 27.37 58.03 34.31"/><rect class="cls-2" x="62.84" y="27.37" width="2.9" height="11.32"/><polygon class="cls-2" points="33.04 27.37 29.71 33.12 26.41 27.41 26.41 27.37 26.38 27.37 23.5 27.37 23.5 27.37 23.5 27.38 23.5 38.69 26.41 38.69 26.41 31.68 28.99 36.37 30.43 36.37 33.07 31.63 33.07 38.69 35.98 38.69 35.98 27.37 33.07 27.37 33.04 27.37"/><path class="cls-2" d="M37.72,33.61a5.37,5.37,0,1,0,10.74,0V27.37h-2.9v6.24a2.47,2.47,0,1,1-4.93,0V27.37h-2.9Z"/></g></g></svg>