<svg xmlns="http://www.w3.org/2000/svg" viewBox="0 0 67.41 19.58"><defs><style>.cls-1{opacity:0.3;}.cls-2{fill:#fff;}</style></defs><title>partner_1</title><g id="Layer_2" data-name="Layer 2"><g id="Layer_1-2" data-name="Layer 1"><g class="cls-1"><path class="cls-2" d="M43,.38h5.24V19.2H43Zm19.24,0v10L54.5.38H49.63V19.2H54.8V8.87l8,10.33h4.57V.38ZM36.44,14.63h5.18V19.2H31.22V15.57a9.84,9.84,0,0,1-7.82,3.67,10.06,10.06,0,0,1-5.94-1.86,12.74,12.74,0,0,1-7.22,2.19C4.38,19.58,0,15.54,0,9.84V9.79A9.77,9.77,0,0,1,10.14,0h0a11.24,11.24,0,0,1,5.9,1.5,11.14,11.14,0,0,0-2.82,3.91,6.21,6.21,0,0,0-3.06-.75A4.94,4.94,0,0,0,5.36,9.82h0v.05a5,5,0,0,0,5.11,5.22,5.32,5.32,0,0,0,3-.78V12H9.76V8.2h4A9.57,9.57,0,0,1,23.45.33,9.77,9.77,0,0,1,31.22,4V.38h5.22ZM28.08,9.79A4.72,4.72,0,0,0,23.4,4.88a4.63,4.63,0,0,0-4.6,4.86v.05a4.72,4.72,0,0,0,4.65,4.91,4.64,4.64,0,0,0,4.62-4.86Z"/></g></g></g></svg>