<svg xmlns="http://www.w3.org/2000/svg" viewBox="0 0 1200 1200"><defs><style>.cls-1{fill:#f0f0f0;}.cls-2{fill:#fc0;}.cls-3{fill:#ffa800;}.cls-4{fill:#ee5060;}.cls-5{fill:#500050;}</style></defs><title>promo_5</title><g id="Layer_2" data-name="Layer 2"><g id="web"><polygon class="cls-1" points="0 1200 0 0 1200 0 0 1200"/><path class="cls-2" d="M239.77,364.23a88,88,0,0,1,0-124.45L0,0V604Z"/><path class="cls-3" d="M0,0,239.77,239.77a88,88,0,0,1,124.45,0L604,0Z"/><polygon class="cls-2" points="873.38 1024 523.38 674 173.38 1024 873.38 1024"/><path class="cls-4" d="M225,379.12a108.84,108.84,0,0,0,153.92,0l-38.48-38.48a54.42,54.42,0,0,1-77,0Z"/><path class="cls-5" d="M380.22,463l-4.36-4.36a7.43,7.43,0,1,1,0-10.5l5-5A14.5,14.5,0,1,0,379.27,465Z"/><path class="cls-5" d="M404.49,467.19h7.18L398.74,439.6h-5.27l-12.93,27.59h7.18l2.36-5h12.09Zm-11.75-10.69,3.46-7.4,3.39,7.4Z"/><path class="cls-5" d="M246.41,453.39a14.5,14.5,0,1,1-14.5-14.5A14.5,14.5,0,0,1,246.41,453.39ZM231.91,446a7.43,7.43,0,1,0,7.43,7.43A7.43,7.43,0,0,0,231.91,446Z"/><path class="cls-5" d="M201.58,458.65a7.43,7.43,0,0,1,10.5-10.5l5-5a14.5,14.5,0,1,0,0,20.51l-5-5A7.43,7.43,0,0,1,201.58,458.65Z"/><polygon class="cls-5" points="333.77 456.52 321.74 439.6 314.67 439.6 314.67 467.19 321.74 467.19 321.74 450.04 333.77 467.19 340.84 467.19 340.84 439.6 333.77 439.6 333.77 456.52"/><rect class="cls-5" x="345.47" y="439.6" width="7.07" height="27.59"/><polygon class="cls-5" points="272.85 439.6 264.73 453.6 256.68 439.7 256.68 439.6 256.61 439.6 249.61 439.6 249.59 439.6 249.61 439.63 249.61 467.19 256.68 467.19 256.68 450.1 262.98 461.53 266.48 461.53 272.94 449.98 272.94 467.19 280.01 467.19 280.01 439.6 272.94 439.6 272.85 439.6"/><path class="cls-5" d="M284.25,454.81a13.09,13.09,0,1,0,26.17,0V439.6h-7.07v15.21a6,6,0,1,1-12,0V439.6h-7.07Z"/><path class="cls-5" d="M263.52,340.65a54.42,54.42,0,0,1,77-77L379,225.21A108.84,108.84,0,0,0,225,379.12Z"/></g></g></svg>