<svg xmlns="http://www.w3.org/2000/svg" viewBox="0 0 320 528"><defs><style>.cls-1{fill:#f0f0f0;}.cls-2{fill:#fc0;}.cls-3{fill:#ffa800;}.cls-4{fill:#ee5060;}.cls-5{fill:#500050;}</style></defs><title>promo_mobile</title><g id="Layer_2" data-name="Layer 2"><g id="mobile"><polygon class="cls-1" points="320 208 0 528 0 320 320 0 320 208"/><polygon class="cls-2" points="160 160 0 0 0 320 160 160"/><polygon class="cls-3" points="160 160 320 0 0 0 160 160"/><polygon class="cls-2" points="320 528 160 368 0 528 320 528"/><path class="cls-4" d="M128.42,191.65a44.66,44.66,0,0,0,63.16,0l-15.79-15.79a22.33,22.33,0,0,1-31.58,0Z"/><path class="cls-5" d="M192.1,226.07l-1.79-1.79a3,3,0,1,1,0-4.31l2.05-2.05a5.95,5.95,0,1,0-.65,9Z"/><path class="cls-5" d="M202.05,227.79H205l-5.3-11.32h-2.16l-5.3,11.32h2.95l1-2.07h5Zm-4.82-4.39,1.42-3,1.39,3Z"/><path class="cls-5" d="M137.19,222.13a5.95,5.95,0,1,1-5.95-5.95A5.95,5.95,0,0,1,137.19,222.13Zm-5.95-3a3,3,0,1,0,3,3A3,3,0,0,0,131.24,219.08Z"/><path class="cls-5" d="M118.79,224.28A3,3,0,0,1,123.1,220l2.05-2.05a5.95,5.95,0,1,0,0,8.41l-2.05-2.05A3,3,0,0,1,118.79,224.28Z"/><polygon class="cls-5" points="173.03 223.41 168.1 216.47 165.2 216.47 165.2 227.79 168.1 227.79 168.1 220.75 173.03 227.79 175.94 227.79 175.94 216.47 173.03 216.47 173.03 223.41"/><rect class="cls-5" x="177.84" y="216.47" width="2.9" height="11.32"/><polygon class="cls-5" points="148.04 216.47 144.71 222.21 141.41 216.51 141.41 216.47 141.38 216.47 138.5 216.47 138.5 216.47 138.5 216.48 138.5 227.79 141.41 227.79 141.41 220.78 143.99 225.47 145.43 225.47 148.07 220.73 148.07 227.79 150.98 227.79 150.98 216.47 148.07 216.47 148.04 216.47"/><path class="cls-5" d="M152.72,222.71a5.37,5.37,0,0,0,10.74,0v-6.24h-2.9v6.24a2.47,2.47,0,0,1-4.93,0v-6.24h-2.9Z"/><path class="cls-5" d="M144.21,175.87a22.33,22.33,0,1,1,31.58-31.58l15.79-15.79a44.66,44.66,0,1,0-63.16,63.16Z"/></g></g></svg>