<?xml version="1.0" encoding="utf-8"?>
<!-- Generator: Adobe Illustrator 22.0.1, SVG Export Plug-In . SVG Version: 6.00 Build 0)  -->
<svg version="1.1" id="Layer_1" xmlns="http://www.w3.org/2000/svg" xmlns:xlink="http://www.w3.org/1999/xlink" x="0px" y="0px"
	 viewBox="0 0 70 100" style="enable-background:new 0 0 70 100;" xml:space="preserve">
<style type="text/css">
	.st0{fill:#EE5160;}
</style>
<g>
	<path class="st0" d="M21.9,1.4l25,23.6c-6.8,6.8-10.5,15.6-10.5,25c0,9.4,3.7,18.2,10.5,25l-25,23.6C8.4,85.5,1,68.3,1,50
		S8.4,14.5,21.9,1.4 M21.9,0c-29.2,27.6-29.2,72.4,0,100l26.4-25c-14.6-13.8-14.6-36.2,0-50L21.9,0L21.9,0z"/>
	<path class="st0" d="M43.6,1.4l25,23.6c-6.8,6.8-10.5,15.6-10.5,25c0,9.4,3.7,18.2,10.5,25l-25,23.6C30.1,85.5,22.7,68.3,22.7,50
		S30.1,14.5,43.6,1.4 M43.6,0c-29.2,27.6-29.2,72.4,0,100L70,75c-14.6-13.8-14.6-36.2,0-50L43.6,0L43.6,0z"/>
</g>
</svg>
