<svg xmlns="http://www.w3.org/2000/svg" viewBox="0 0 219.33 55.45"><defs><style>.cls-1{font-size:18px;font-family:TTNorms-ExtraBold, TTNorms ExtraBold;font-weight:700;}.cls-1,.cls-3{fill:#581751;}.cls-2{letter-spacing:-0.08em;}.cls-4{fill:#e75166;}</style></defs><title>slider2_p</title><g id="Layer_2" data-name="Layer 2"><g id="web"><text class="cls-1" transform="translate(160 15.07)">DIGI<tspan class="cls-2" x="32.22" y="0">T</tspan><tspan x="39.82" y="0">AL</tspan><tspan x="0" y="17.94">PRESS</tspan><tspan x="0" y="35.89">OFFICE</tspan></text><path class="cls-3" d="M0,51V2.56H20.36c15.27,0,26.25,9.16,26.25,24.21S35.62,51,20.43,51ZM33.81,26.77c0-7.49-4.51-13.3-13.38-13.3H12.5V40.14h7.85C28.86,40.14,33.81,34,33.81,26.77Z"/><path class="cls-3" d="M52.13,51V2.56H76.41c10.9,0,16.87,7.34,16.87,16.14s-6,16.07-16.87,16.07H64.63V51ZM80.55,18.7c0-3.35-2.47-5.24-5.82-5.24H64.63v10.4H74.74C78.08,23.86,80.55,22,80.55,18.7Z"/><path class="cls-3" d="M123.58,52.52A25.65,25.65,0,1,1,141.72,8.74h0a25.64,25.64,0,0,1-18.14,43.78Zm0-38.88a13.24,13.24,0,1,0,9.37,3.87A13.2,13.2,0,0,0,123.58,13.64Z"/><path class="cls-4" d="M123.58,52.52A25.57,25.57,0,0,1,105.44,45l8.77-8.77a13.26,13.26,0,0,0,18.74,0L141.72,45A25.58,25.58,0,0,1,123.58,52.52Z"/></g></g></svg>