<svg xmlns="http://www.w3.org/2000/svg" viewBox="0 0 256.88 55.45"><defs><style>.cls-1{font-size:18px;font-family:TTNorms-ExtraBold, TTNorms ExtraBold;font-weight:700;}.cls-1,.cls-4{fill:#fff;}.cls-2{letter-spacing:-0.08em;}.cls-3{letter-spacing:-0.01em;}.cls-5{fill:#e75166;}</style></defs><title>slider3_w</title><g id="Layer_2" data-name="Layer 2"><g id="web"><text class="cls-1" transform="translate(175.1 15.07)">SOCIAL<tspan x="0" y="17.94">MEDIA</tspan><tspan x="0" y="35.89">PL</tspan><tspan class="cls-2" x="18.07" y="35.89">A</tspan><tspan class="cls-3" x="27.67" y="35.89">Y</tspan><tspan x="37.28" y="35.89">BOOK</tspan></text><path class="cls-4" d="M0,44.12l6.62-9.38a21.92,21.92,0,0,0,15.49,6.4c4.29,0,6.91-1.67,6.91-4,0-6.62-27.49-1.31-27.49-20C1.53,9,8.44,1.72,20.87,1.72c7.78,0,14.54,2.33,19.71,6.76l-6.84,8.94a22.84,22.84,0,0,0-14.18-5c-3.64,0-5.24,1.46-5.24,3.49,0,6.18,27.42,1.67,27.42,19.71,0,9.74-7.2,16.22-20.22,16.22C11.71,51.82,4.87,48.77,0,44.12Z"/><path class="cls-4" d="M91.92,51V19.39L79.63,51H74.1L61.89,19.39V51H49.38V2.45H66.76L76.87,28.77,87,2.45h17.38V51Z"/><path class="cls-4" d="M139.56,23.77H129.45V13.37h10.11a7.56,7.56,0,0,1,2.12.29l8.88-8.88a18.4,18.4,0,0,0-9.33-2.32H116.94V51h12.51V34.68h11.78a18.36,18.36,0,0,0,9.45-2.38l-8.86-8.86A7.53,7.53,0,0,1,139.56,23.77Z"/><path class="cls-5" d="M158.1,18.6c0-5.82-2.62-11-7.54-13.83l-8.88,8.88a4.87,4.87,0,0,1,3.69,4.94,4.82,4.82,0,0,1-3.55,4.83l8.86,8.86A15.42,15.42,0,0,0,158.1,18.6Z"/></g></g></svg>